<?xml version="1.0" encoding="us-ascii" standalone="no"?><svg xmlns="http://www.w3.org/2000/svg" xmlns:xlink="http://www.w3.org/1999/xlink" contentStyleType="text/css" height="1430px" preserveAspectRatio="none" style="width:704px;height:1430px;background:#FFFFFF;" version="1.1" viewBox="0 0 704 1430" width="704px" zoomAndPan="magnify"><defs/><g><ellipse cx="349" cy="20" fill="#222222" rx="10" ry="10" style="stroke:#222222;stroke-width:1.0;"/><rect fill="#F1F1F1" height="33.9688" rx="12.5" ry="12.5" style="stroke:#181818;stroke-width:0.5;" width="116" x="291" y="50"/><text fill="#000000" font-family="sans-serif" font-size="12" lengthAdjust="spacing" textLength="96" x="301" y="71.1387">Initializing TCP/IP</text><rect fill="#F1F1F1" height="33.9688" rx="12.5" ry="12.5" style="stroke:#181818;stroke-width:0.5;" width="146" x="276" y="103.9688"/><text fill="#000000" font-family="sans-serif" font-size="12" lengthAdjust="spacing" textLength="126" x="286" y="125.1074">Configuring the timer</text><rect fill="#ADD8E6" height="33.9688" rx="12.5" ry="12.5" style="stroke:#181818;stroke-width:0.5;" width="143" x="277.5" y="157.9375"/><text fill="#000000" font-family="sans-serif" font-size="12" lengthAdjust="spacing" textLength="123" x="287.5" y="179.0762">Initializing the library</text><rect fill="#ADD8E6" height="33.9688" rx="12.5" ry="12.5" style="stroke:#181818;stroke-width:0.5;" width="153" x="272.5" y="211.9063"/><text fill="#000000" font-family="sans-serif" font-size="12" lengthAdjust="spacing" textLength="133" x="282.5" y="233.0449">Configuring the library</text><rect fill="#F1F1F1" height="33.9688" rx="12.5" ry="12.5" style="stroke:#181818;stroke-width:0.5;" width="199" x="249.5" y="265.875"/><text fill="#000000" font-family="sans-serif" font-size="12" lengthAdjust="spacing" textLength="179" x="259.5" y="287.0137">Establishing TCP/IP connection</text><rect fill="#F1F1F1" height="33.9688" rx="12.5" ry="12.5" style="stroke:#181818;stroke-width:0.5;" width="134" x="282" y="423.9565"/><text fill="#000000" font-family="sans-serif" font-size="12" lengthAdjust="spacing" textLength="114" x="292" y="445.0952">Setting empty data</text><rect fill="#ADD8E6" height="33.9688" rx="12.5" ry="12.5" style="stroke:#181818;stroke-width:0.5;" width="139" x="279.5" y="521.9253"/><text fill="#000000" font-family="sans-serif" font-size="12" lengthAdjust="spacing" textLength="119" x="289.5" y="543.064">Processing the data</text><polygon fill="#F1F1F1" points="50,575.894,417,575.894,429,587.894,417,599.894,50,599.894,38,587.894,50,575.894" style="stroke:#181818;stroke-width:0.5;"/><text fill="#000000" font-family="sans-serif" font-size="11" lengthAdjust="spacing" textLength="21" x="237.5" y="610.1045">yes</text><text fill="#000000" font-family="sans-serif" font-size="11" lengthAdjust="spacing" textLength="367" x="50" y="591.7021">Result not equalt to MQTT_SUCCESS nor MQTT_PENDING_DATA?</text><rect fill="#F1F1F1" height="33.9688" rx="12.5" ry="12.5" style="stroke:#181818;stroke-width:0.5;" width="122" x="172.5" y="632.6987"/><text fill="#000000" font-family="sans-serif" font-size="12" lengthAdjust="spacing" textLength="102" x="182.5" y="653.8374">Error processing</text><polygon fill="#F1F1F1" points="477.5,575.894,571.5,575.894,583.5,587.894,571.5,599.894,477.5,599.894,465.5,587.894,477.5,575.894" style="stroke:#181818;stroke-width:0.5;"/><text fill="#000000" font-family="sans-serif" font-size="11" lengthAdjust="spacing" textLength="21" x="528.5" y="610.1045">yes</text><text fill="#000000" font-family="sans-serif" font-size="11" lengthAdjust="spacing" textLength="94" x="477.5" y="591.7021">data not empty?</text><polygon fill="#F1F1F1" points="449,632.6987,600,632.6987,610,649.6831,600,666.6675,449,666.6675" style="stroke:#181818;stroke-width:0.5;"/><text fill="#000000" font-family="sans-serif" font-size="12" lengthAdjust="spacing" textLength="131" x="459" y="653.8374">Non-blocking sending</text><polygon fill="#F1F1F1" points="349,477.9253,361,489.9253,349,501.9253,337,489.9253,349,477.9253" style="stroke:#181818;stroke-width:0.5;"/><polygon fill="#F1F1F1" points="238,706.6675,460,706.6675,472,718.6675,460,730.6675,238,730.6675,226,718.6675,238,706.6675" style="stroke:#181818;stroke-width:0.5;"/><text fill="#000000" font-family="sans-serif" font-size="11" lengthAdjust="spacing" textLength="222" x="238" y="722.4756">Result equal to MQTT_PENDING_DATA?</text><polygon fill="#F1F1F1" points="311.5,375.5542,386.5,375.5542,398.5,387.5542,386.5,399.5542,311.5,399.5542,299.5,387.5542,311.5,375.5542" style="stroke:#181818;stroke-width:0.5;"/><text fill="#000000" font-family="sans-serif" font-size="11" lengthAdjust="spacing" textLength="21" x="353" y="409.7646">yes</text><text fill="#000000" font-family="sans-serif" font-size="11" lengthAdjust="spacing" textLength="75" x="311.5" y="391.3623">timer raised?</text><polygon fill="#F1F1F1" points="349,750.6675,361,762.6675,349,774.6675,337,762.6675,349,750.6675" style="stroke:#181818;stroke-width:0.5;"/><polygon fill="#F1F1F1" points="269.5,794.6675,438.5,794.6675,428.5,811.6519,438.5,828.6362,269.5,828.6362" style="stroke:#181818;stroke-width:0.5;"/><text fill="#000000" font-family="sans-serif" font-size="12" lengthAdjust="spacing" textLength="139" x="279.5" y="815.8062">Non-blocking receiving</text><rect fill="#F1F1F1" height="33.9688" rx="12.5" ry="12.5" style="stroke:#181818;stroke-width:0.5;" width="115" x="291.5" y="897.0386"/><text fill="#000000" font-family="sans-serif" font-size="12" lengthAdjust="spacing" textLength="95" x="301.5" y="918.1772">Setting the data</text><rect fill="#ADD8E6" height="33.9688" rx="12.5" ry="12.5" style="stroke:#181818;stroke-width:0.5;" width="139" x="279.5" y="995.0073"/><text fill="#000000" font-family="sans-serif" font-size="12" lengthAdjust="spacing" textLength="119" x="289.5" y="1016.146">Processing the data</text><polygon fill="#F1F1F1" points="50,1048.9761,417,1048.9761,429,1060.9761,417,1072.9761,50,1072.9761,38,1060.9761,50,1048.9761" style="stroke:#181818;stroke-width:0.5;"/><text fill="#000000" font-family="sans-serif" font-size="11" lengthAdjust="spacing" textLength="21" x="237.5" y="1083.1865">yes</text><text fill="#000000" font-family="sans-serif" font-size="11" lengthAdjust="spacing" textLength="367" x="50" y="1064.7842">Result not equalt to MQTT_SUCCESS nor MQTT_PENDING_DATA?</text><rect fill="#F1F1F1" height="33.9688" rx="12.5" ry="12.5" style="stroke:#181818;stroke-width:0.5;" width="122" x="172.5" y="1105.7808"/><text fill="#000000" font-family="sans-serif" font-size="12" lengthAdjust="spacing" textLength="102" x="182.5" y="1126.9194">Error processing</text><polygon fill="#F1F1F1" points="477.5,1048.9761,571.5,1048.9761,583.5,1060.9761,571.5,1072.9761,477.5,1072.9761,465.5,1060.9761,477.5,1048.9761" style="stroke:#181818;stroke-width:0.5;"/><text fill="#000000" font-family="sans-serif" font-size="11" lengthAdjust="spacing" textLength="21" x="528.5" y="1083.1865">yes</text><text fill="#000000" font-family="sans-serif" font-size="11" lengthAdjust="spacing" textLength="94" x="477.5" y="1064.7842">data not empty?</text><polygon fill="#F1F1F1" points="449,1105.7808,600,1105.7808,610,1122.7651,600,1139.7495,449,1139.7495" style="stroke:#181818;stroke-width:0.5;"/><text fill="#000000" font-family="sans-serif" font-size="12" lengthAdjust="spacing" textLength="131" x="459" y="1126.9194">Non-blocking sending</text><polygon fill="#F1F1F1" points="349,951.0073,361,963.0073,349,975.0073,337,963.0073,349,951.0073" style="stroke:#181818;stroke-width:0.5;"/><polygon fill="#F1F1F1" points="238,1179.7495,460,1179.7495,472,1191.7495,460,1203.7495,238,1203.7495,226,1191.7495,238,1179.7495" style="stroke:#181818;stroke-width:0.5;"/><text fill="#000000" font-family="sans-serif" font-size="11" lengthAdjust="spacing" textLength="222" x="238" y="1195.5576">Result equal to MQTT_PENDING_DATA?</text><polygon fill="#F1F1F1" points="306,848.6362,392,848.6362,404,860.6362,392,872.6362,306,872.6362,294,860.6362,306,848.6362" style="stroke:#181818;stroke-width:0.5;"/><text fill="#000000" font-family="sans-serif" font-size="11" lengthAdjust="spacing" textLength="21" x="353" y="882.8467">yes</text><text fill="#000000" font-family="sans-serif" font-size="11" lengthAdjust="spacing" textLength="86" x="306" y="864.4443">data received?</text><polygon fill="#F1F1F1" points="349,1223.7495,361,1235.7495,349,1247.7495,337,1235.7495,349,1223.7495" style="stroke:#181818;stroke-width:0.5;"/><polygon fill="#F1F1F1" points="323,319.8438,375,319.8438,387,331.8438,375,343.8438,323,343.8438,311,331.8438,323,319.8438" style="stroke:#181818;stroke-width:0.5;"/><text fill="#000000" font-family="sans-serif" font-size="11" lengthAdjust="spacing" textLength="28" x="353" y="354.0542">false</text><text fill="#000000" font-family="sans-serif" font-size="11" lengthAdjust="spacing" textLength="52" x="323" y="335.6519">stopped?</text><rect fill="#ADD8E6" height="33.9688" rx="12.5" ry="12.5" style="stroke:#181818;stroke-width:0.5;" width="209" x="244.5" y="1289.7495"/><text fill="#000000" font-family="sans-serif" font-size="12" lengthAdjust="spacing" textLength="189" x="254.5" y="1310.8882">Releasing the library resources</text><rect fill="#F1F1F1" height="33.9688" rx="12.5" ry="12.5" style="stroke:#181818;stroke-width:0.5;" width="172" x="263" y="1343.7183"/><text fill="#000000" font-family="sans-serif" font-size="12" lengthAdjust="spacing" textLength="152" x="273" y="1364.8569">Closing TCP/IP connection</text><ellipse cx="349" cy="1408.687" fill="none" rx="11" ry="11" style="stroke:#222222;stroke-width:1.0;"/><ellipse cx="349" cy="1408.687" fill="#222222" rx="6" ry="6" style="stroke:#222222;stroke-width:1.0;"/><line style="stroke:#181818;stroke-width:1.0;" x1="349" x2="349" y1="30" y2="50"/><polygon fill="#181818" points="345,40,349,50,353,40,349,44" style="stroke:#181818;stroke-width:1.0;"/><line style="stroke:#181818;stroke-width:1.0;" x1="349" x2="349" y1="83.9688" y2="103.9688"/><polygon fill="#181818" points="345,93.9688,349,103.9688,353,93.9688,349,97.9688" style="stroke:#181818;stroke-width:1.0;"/><line style="stroke:#181818;stroke-width:1.0;" x1="349" x2="349" y1="137.9375" y2="157.9375"/><polygon fill="#181818" points="345,147.9375,349,157.9375,353,147.9375,349,151.9375" style="stroke:#181818;stroke-width:1.0;"/><line style="stroke:#181818;stroke-width:1.0;" x1="349" x2="349" y1="191.9063" y2="211.9063"/><polygon fill="#181818" points="345,201.9063,349,211.9063,353,201.9063,349,205.9063" style="stroke:#181818;stroke-width:1.0;"/><line style="stroke:#181818;stroke-width:1.0;" x1="349" x2="349" y1="245.875" y2="265.875"/><polygon fill="#181818" points="345,255.875,349,265.875,353,255.875,349,259.875" style="stroke:#181818;stroke-width:1.0;"/><line style="stroke:#181818;stroke-width:1.0;" x1="233.5" x2="233.5" y1="599.894" y2="632.6987"/><polygon fill="#181818" points="229.5,622.6987,233.5,632.6987,237.5,622.6987,233.5,626.6987" style="stroke:#181818;stroke-width:1.0;"/><line style="stroke:#181818;stroke-width:1.0;" x1="233.5" x2="233.5" y1="666.6675" y2="686.6675"/><polygon fill="#181818" points="229.5,676.6675,233.5,686.6675,237.5,676.6675,233.5,680.6675" style="stroke:#181818;stroke-width:1.0;"/><line style="stroke:#181818;stroke-width:1.0;" x1="524.5" x2="524.5" y1="599.894" y2="632.6987"/><polygon fill="#181818" points="520.5,622.6987,524.5,632.6987,528.5,622.6987,524.5,626.6987" style="stroke:#181818;stroke-width:1.0;"/><line style="stroke:#181818;stroke-width:1.0;" x1="524.5" x2="524.5" y1="666.6675" y2="686.6675"/><polygon fill="#181818" points="520.5,676.6675,524.5,686.6675,528.5,676.6675,524.5,680.6675" style="stroke:#181818;stroke-width:1.0;"/><line style="stroke:#181818;stroke-width:1.0;" x1="429" x2="465.5" y1="587.894" y2="587.894"/><polygon fill="#181818" points="455.5,583.894,465.5,587.894,455.5,591.894,459.5,587.894" style="stroke:#181818;stroke-width:1.0;"/><line style="stroke:#181818;stroke-width:1.0;" x1="349" x2="349" y1="555.894" y2="560.894"/><line style="stroke:#181818;stroke-width:1.0;" x1="349" x2="233.5" y1="560.894" y2="560.894"/><line style="stroke:#181818;stroke-width:1.0;" x1="233.5" x2="233.5" y1="560.894" y2="575.894"/><polygon fill="#181818" points="229.5,565.894,233.5,575.894,237.5,565.894,233.5,569.894" style="stroke:#181818;stroke-width:1.0;"/><line style="stroke:#181818;stroke-width:1.0;" x1="583.5" x2="624" y1="587.894" y2="587.894"/><line style="stroke:#181818;stroke-width:1.0;" x1="624" x2="624" y1="587.894" y2="686.6675"/><polygon fill="#181818" points="620,676.6675,624,686.6675,628,676.6675,624,680.6675" style="stroke:#181818;stroke-width:1.0;"/><line style="stroke:#181818;stroke-width:1.0;" x1="233.5" x2="624" y1="686.6675" y2="686.6675"/><line style="stroke:#181818;stroke-width:1.0;" x1="349" x2="349" y1="501.9253" y2="521.9253"/><polygon fill="#181818" points="345,511.9253,349,521.9253,353,511.9253,349,515.9253" style="stroke:#181818;stroke-width:1.0;"/><line style="stroke:#181818;stroke-width:1.0;" x1="472" x2="642" y1="718.6675" y2="718.6675"/><polygon fill="#181818" points="638,621.7964,642,611.7964,646,621.7964,642,617.7964" style="stroke:#181818;stroke-width:1.0;"/><line style="stroke:#181818;stroke-width:1.0;" x1="642" x2="642" y1="489.9253" y2="718.6675"/><line style="stroke:#181818;stroke-width:1.0;" x1="642" x2="361" y1="489.9253" y2="489.9253"/><polygon fill="#181818" points="371,485.9253,361,489.9253,371,493.9253,367,489.9253" style="stroke:#181818;stroke-width:1.0;"/><line style="stroke:#181818;stroke-width:1.0;" x1="349" x2="349" y1="686.6675" y2="706.6675"/><polygon fill="#181818" points="345,696.6675,349,706.6675,353,696.6675,349,700.6675" style="stroke:#181818;stroke-width:1.0;"/><line style="stroke:#181818;stroke-width:1.0;" x1="349" x2="349" y1="457.9253" y2="477.9253"/><polygon fill="#181818" points="345,467.9253,349,477.9253,353,467.9253,349,471.9253" style="stroke:#181818;stroke-width:1.0;"/><line style="stroke:#181818;stroke-width:1.0;" x1="349" x2="349" y1="399.5542" y2="423.9565"/><polygon fill="#181818" points="345,413.9565,349,423.9565,353,413.9565,349,417.9565" style="stroke:#181818;stroke-width:1.0;"/><line style="stroke:#181818;stroke-width:1.0;" x1="398.5" x2="660" y1="387.5542" y2="387.5542"/><polygon fill="#181818" points="656,567.312,660,577.312,664,567.312,660,571.312" style="stroke:#181818;stroke-width:1.0;"/><line style="stroke:#181818;stroke-width:1.0;" x1="660" x2="660" y1="387.5542" y2="762.6675"/><line style="stroke:#181818;stroke-width:1.0;" x1="660" x2="361" y1="762.6675" y2="762.6675"/><polygon fill="#181818" points="371,758.6675,361,762.6675,371,766.6675,367,762.6675" style="stroke:#181818;stroke-width:1.0;"/><line style="stroke:#181818;stroke-width:1.0;" x1="349" x2="349" y1="730.6675" y2="750.6675"/><polygon fill="#181818" points="345,740.6675,349,750.6675,353,740.6675,349,744.6675" style="stroke:#181818;stroke-width:1.0;"/><line style="stroke:#181818;stroke-width:1.0;" x1="349" x2="349" y1="774.6675" y2="794.6675"/><polygon fill="#181818" points="345,784.6675,349,794.6675,353,784.6675,349,788.6675" style="stroke:#181818;stroke-width:1.0;"/><line style="stroke:#181818;stroke-width:1.0;" x1="233.5" x2="233.5" y1="1072.9761" y2="1105.7808"/><polygon fill="#181818" points="229.5,1095.7808,233.5,1105.7808,237.5,1095.7808,233.5,1099.7808" style="stroke:#181818;stroke-width:1.0;"/><line style="stroke:#181818;stroke-width:1.0;" x1="233.5" x2="233.5" y1="1139.7495" y2="1159.7495"/><polygon fill="#181818" points="229.5,1149.7495,233.5,1159.7495,237.5,1149.7495,233.5,1153.7495" style="stroke:#181818;stroke-width:1.0;"/><line style="stroke:#181818;stroke-width:1.0;" x1="524.5" x2="524.5" y1="1072.9761" y2="1105.7808"/><polygon fill="#181818" points="520.5,1095.7808,524.5,1105.7808,528.5,1095.7808,524.5,1099.7808" style="stroke:#181818;stroke-width:1.0;"/><line style="stroke:#181818;stroke-width:1.0;" x1="524.5" x2="524.5" y1="1139.7495" y2="1159.7495"/><polygon fill="#181818" points="520.5,1149.7495,524.5,1159.7495,528.5,1149.7495,524.5,1153.7495" style="stroke:#181818;stroke-width:1.0;"/><line style="stroke:#181818;stroke-width:1.0;" x1="429" x2="465.5" y1="1060.9761" y2="1060.9761"/><polygon fill="#181818" points="455.5,1056.9761,465.5,1060.9761,455.5,1064.9761,459.5,1060.9761" style="stroke:#181818;stroke-width:1.0;"/><line style="stroke:#181818;stroke-width:1.0;" x1="349" x2="349" y1="1028.9761" y2="1033.9761"/><line style="stroke:#181818;stroke-width:1.0;" x1="349" x2="233.5" y1="1033.9761" y2="1033.9761"/><line style="stroke:#181818;stroke-width:1.0;" x1="233.5" x2="233.5" y1="1033.9761" y2="1048.9761"/><polygon fill="#181818" points="229.5,1038.9761,233.5,1048.9761,237.5,1038.9761,233.5,1042.9761" style="stroke:#181818;stroke-width:1.0;"/><line style="stroke:#181818;stroke-width:1.0;" x1="583.5" x2="624" y1="1060.9761" y2="1060.9761"/><line style="stroke:#181818;stroke-width:1.0;" x1="624" x2="624" y1="1060.9761" y2="1159.7495"/><polygon fill="#181818" points="620,1149.7495,624,1159.7495,628,1149.7495,624,1153.7495" style="stroke:#181818;stroke-width:1.0;"/><line style="stroke:#181818;stroke-width:1.0;" x1="233.5" x2="624" y1="1159.7495" y2="1159.7495"/><line style="stroke:#181818;stroke-width:1.0;" x1="349" x2="349" y1="975.0073" y2="995.0073"/><polygon fill="#181818" points="345,985.0073,349,995.0073,353,985.0073,349,989.0073" style="stroke:#181818;stroke-width:1.0;"/><line style="stroke:#181818;stroke-width:1.0;" x1="472" x2="642" y1="1191.7495" y2="1191.7495"/><polygon fill="#181818" points="638,1094.8784,642,1084.8784,646,1094.8784,642,1090.8784" style="stroke:#181818;stroke-width:1.0;"/><line style="stroke:#181818;stroke-width:1.0;" x1="642" x2="642" y1="963.0073" y2="1191.7495"/><line style="stroke:#181818;stroke-width:1.0;" x1="642" x2="361" y1="963.0073" y2="963.0073"/><polygon fill="#181818" points="371,959.0073,361,963.0073,371,967.0073,367,963.0073" style="stroke:#181818;stroke-width:1.0;"/><line style="stroke:#181818;stroke-width:1.0;" x1="349" x2="349" y1="1159.7495" y2="1179.7495"/><polygon fill="#181818" points="345,1169.7495,349,1179.7495,353,1169.7495,349,1173.7495" style="stroke:#181818;stroke-width:1.0;"/><line style="stroke:#181818;stroke-width:1.0;" x1="349" x2="349" y1="931.0073" y2="951.0073"/><polygon fill="#181818" points="345,941.0073,349,951.0073,353,941.0073,349,945.0073" style="stroke:#181818;stroke-width:1.0;"/><line style="stroke:#181818;stroke-width:1.0;" x1="349" x2="349" y1="872.6362" y2="897.0386"/><polygon fill="#181818" points="345,887.0386,349,897.0386,353,887.0386,349,891.0386" style="stroke:#181818;stroke-width:1.0;"/><line style="stroke:#181818;stroke-width:1.0;" x1="404" x2="660" y1="860.6362" y2="860.6362"/><polygon fill="#181818" points="656,1040.394,660,1050.394,664,1040.394,660,1044.394" style="stroke:#181818;stroke-width:1.0;"/><line style="stroke:#181818;stroke-width:1.0;" x1="660" x2="660" y1="860.6362" y2="1235.7495"/><line style="stroke:#181818;stroke-width:1.0;" x1="660" x2="361" y1="1235.7495" y2="1235.7495"/><polygon fill="#181818" points="371,1231.7495,361,1235.7495,371,1239.7495,367,1235.7495" style="stroke:#181818;stroke-width:1.0;"/><line style="stroke:#181818;stroke-width:1.0;" x1="349" x2="349" y1="1203.7495" y2="1223.7495"/><polygon fill="#181818" points="345,1213.7495,349,1223.7495,353,1213.7495,349,1217.7495" style="stroke:#181818;stroke-width:1.0;"/><line style="stroke:#181818;stroke-width:1.0;" x1="349" x2="349" y1="828.6362" y2="848.6362"/><polygon fill="#181818" points="345,838.6362,349,848.6362,353,838.6362,349,842.6362" style="stroke:#181818;stroke-width:1.0;"/><line style="stroke:#181818;stroke-width:1.0;" x1="349" x2="349" y1="343.8438" y2="375.5542"/><polygon fill="#181818" points="345,365.5542,349,375.5542,353,365.5542,349,369.5542" style="stroke:#181818;stroke-width:1.0;"/><line style="stroke:#181818;stroke-width:1.0;" x1="349" x2="349" y1="1247.7495" y2="1257.7495"/><line style="stroke:#181818;stroke-width:1.0;" x1="349" x2="678" y1="1257.7495" y2="1257.7495"/><polygon fill="#181818" points="674,803.2495,678,793.2495,682,803.2495,678,799.2495" style="stroke:#181818;stroke-width:1.0;"/><line style="stroke:#181818;stroke-width:1.0;" x1="678" x2="678" y1="331.8438" y2="1257.7495"/><line style="stroke:#181818;stroke-width:1.0;" x1="678" x2="387" y1="331.8438" y2="331.8438"/><polygon fill="#181818" points="397,327.8438,387,331.8438,397,335.8438,393,331.8438" style="stroke:#181818;stroke-width:1.0;"/><line style="stroke:#181818;stroke-width:1.0;" x1="311" x2="24" y1="331.8438" y2="331.8438"/><polygon fill="#181818" points="20,789.2495,24,799.2495,28,789.2495,24,793.2495" style="stroke:#181818;stroke-width:1.0;"/><line style="stroke:#181818;stroke-width:1.0;" x1="24" x2="24" y1="331.8438" y2="1269.7495"/><line style="stroke:#181818;stroke-width:1.0;" x1="24" x2="349" y1="1269.7495" y2="1269.7495"/><line style="stroke:#181818;stroke-width:1.0;" x1="349" x2="349" y1="1269.7495" y2="1289.7495"/><polygon fill="#181818" points="345,1279.7495,349,1289.7495,353,1279.7495,349,1283.7495" style="stroke:#181818;stroke-width:1.0;"/><line style="stroke:#181818;stroke-width:1.0;" x1="349" x2="349" y1="299.8438" y2="319.8438"/><polygon fill="#181818" points="345,309.8438,349,319.8438,353,309.8438,349,313.8438" style="stroke:#181818;stroke-width:1.0;"/><line style="stroke:#181818;stroke-width:1.0;" x1="349" x2="349" y1="1323.7183" y2="1343.7183"/><polygon fill="#181818" points="345,1333.7183,349,1343.7183,353,1333.7183,349,1337.7183" style="stroke:#181818;stroke-width:1.0;"/><line style="stroke:#181818;stroke-width:1.0;" x1="349" x2="349" y1="1377.687" y2="1397.687"/><polygon fill="#181818" points="345,1387.687,349,1397.687,353,1387.687,349,1391.687" style="stroke:#181818;stroke-width:1.0;"/><!--SRC=[xLFDJeD04BxlKupnGW_6EoKrJKiC1oiMzDeiT82DsrtS7JJrwTq5QqlZpml8WMncllb-9fcBrl1wnw6p-8I6HCbbKe6kAcQ96s9XeWG9BiMxK3NaY_GwIQUCXGkjAb5tnbUfGI2nG-CQbrBK3HMom_6anqXH66xsOzGvqH4Kniv28OLjZj9GQgMm9A6LGxmrGc9WIRSjRcyc82m45PSM9qnKGMy931UsRpfo1S4UxOG1X1aIULhSjRI7BIS-TMM3BN82zm8uyPWQNQAr1ui7D81JMQFj987I1FZISVSa3NSFURx97XUBECjSomo5D5ujazNjPZdFv-U6_1V6nZXi-wKsYA0Bv9MyxA3ZFNzBiDBggf2wVFPMBQgj9ucY-uxQZcQpWSvLgsFMOOUVAVe4Nm76VjamoCOY1aiKhru6eYXHWmmxk1swlwp_T9t_o_zp-UxVZumkQ8qIkJsx7wTWTMTSblvQfRO_7P4_dmy0]--></g></svg>