<?xml version="1.0" encoding="us-ascii" standalone="no"?><svg xmlns="http://www.w3.org/2000/svg" xmlns:xlink="http://www.w3.org/1999/xlink" contentStyleType="text/css" height="1380px" preserveAspectRatio="none" style="width:704px;height:1380px;background:#FFFFFF;" version="1.1" viewBox="0 0 704 1380" width="704px" zoomAndPan="magnify"><defs/><g><ellipse cx="349" cy="20" fill="#222222" rx="10" ry="10" style="stroke:#222222;stroke-width:1.0;"/><rect fill="#F1F1F1" height="33.9688" rx="12.5" ry="12.5" style="stroke:#181818;stroke-width:0.5;" width="116" x="291" y="50"/><text fill="#000000" font-family="sans-serif" font-size="12" lengthAdjust="spacing" textLength="96" x="301" y="71.1387">Initializing TCP/IP</text><rect fill="#F1F1F1" height="33.9688" rx="12.5" ry="12.5" style="stroke:#181818;stroke-width:0.5;" width="146" x="276" y="103.9688"/><text fill="#000000" font-family="sans-serif" font-size="12" lengthAdjust="spacing" textLength="126" x="286" y="125.1074">Configuring the timer</text><rect fill="#ADD8E6" height="33.9688" rx="12.5" ry="12.5" style="stroke:#181818;stroke-width:0.5;" width="143" x="277.5" y="157.9375"/><text fill="#000000" font-family="sans-serif" font-size="12" lengthAdjust="spacing" textLength="123" x="287.5" y="179.0762">Initializing the library</text><rect fill="#ADD8E6" height="33.9688" rx="12.5" ry="12.5" style="stroke:#181818;stroke-width:0.5;" width="153" x="272.5" y="211.9063"/><text fill="#000000" font-family="sans-serif" font-size="12" lengthAdjust="spacing" textLength="133" x="282.5" y="233.0449">Configuring the library</text><rect fill="#F1F1F1" height="33.9688" rx="12.5" ry="12.5" style="stroke:#181818;stroke-width:0.5;" width="199" x="249.5" y="265.875"/><text fill="#000000" font-family="sans-serif" font-size="12" lengthAdjust="spacing" textLength="179" x="259.5" y="287.0137">Establishing TCP/IP connection</text><rect fill="#F1F1F1" height="33.9688" rx="12.5" ry="12.5" style="stroke:#181818;stroke-width:0.5;" width="134" x="282" y="412.2461"/><text fill="#000000" font-family="sans-serif" font-size="12" lengthAdjust="spacing" textLength="114" x="292" y="433.3848">Setting empty data</text><rect fill="#ADD8E6" height="33.9688" rx="12.5" ry="12.5" style="stroke:#181818;stroke-width:0.5;" width="139" x="279.5" y="510.2148"/><text fill="#000000" font-family="sans-serif" font-size="12" lengthAdjust="spacing" textLength="119" x="289.5" y="531.3535">Processing the data</text><polygon fill="#F1F1F1" points="50,564.1836,417,564.1836,429,576.1836,417,588.1836,50,588.1836,38,576.1836,50,564.1836" style="stroke:#181818;stroke-width:0.5;"/><text fill="#000000" font-family="sans-serif" font-size="11" lengthAdjust="spacing" textLength="21" x="237.5" y="598.394">yes</text><text fill="#000000" font-family="sans-serif" font-size="11" lengthAdjust="spacing" textLength="367" x="50" y="579.9917">Result not equalt to MQTT_SUCCESS nor MQTT_PENDING_DATA?</text><rect fill="#F1F1F1" height="33.9688" rx="12.5" ry="12.5" style="stroke:#181818;stroke-width:0.5;" width="122" x="172.5" y="620.9883"/><text fill="#000000" font-family="sans-serif" font-size="12" lengthAdjust="spacing" textLength="102" x="182.5" y="642.127">Error processing</text><polygon fill="#F1F1F1" points="477.5,564.1836,571.5,564.1836,583.5,576.1836,571.5,588.1836,477.5,588.1836,465.5,576.1836,477.5,564.1836" style="stroke:#181818;stroke-width:0.5;"/><text fill="#000000" font-family="sans-serif" font-size="11" lengthAdjust="spacing" textLength="21" x="528.5" y="598.394">yes</text><text fill="#000000" font-family="sans-serif" font-size="11" lengthAdjust="spacing" textLength="94" x="477.5" y="579.9917">data not empty?</text><polygon fill="#F1F1F1" points="449,620.9883,600,620.9883,610,637.9727,600,654.957,449,654.957" style="stroke:#181818;stroke-width:0.5;"/><text fill="#000000" font-family="sans-serif" font-size="12" lengthAdjust="spacing" textLength="131" x="459" y="642.127">Non-blocking sending</text><polygon fill="#F1F1F1" points="349,466.2148,361,478.2148,349,490.2148,337,478.2148,349,466.2148" style="stroke:#181818;stroke-width:0.5;"/><polygon fill="#F1F1F1" points="238,694.957,460,694.957,472,706.957,460,718.957,238,718.957,226,706.957,238,694.957" style="stroke:#181818;stroke-width:0.5;"/><text fill="#000000" font-family="sans-serif" font-size="11" lengthAdjust="spacing" textLength="222" x="238" y="710.7651">Result equal to MQTT_PENDING_DATA?</text><polygon fill="#F1F1F1" points="311.5,363.8438,386.5,363.8438,398.5,375.8438,386.5,387.8438,311.5,387.8438,299.5,375.8438,311.5,363.8438" style="stroke:#181818;stroke-width:0.5;"/><text fill="#000000" font-family="sans-serif" font-size="11" lengthAdjust="spacing" textLength="21" x="353" y="398.0542">yes</text><text fill="#000000" font-family="sans-serif" font-size="11" lengthAdjust="spacing" textLength="75" x="311.5" y="379.6519">timer raised?</text><polygon fill="#F1F1F1" points="349,738.957,361,750.957,349,762.957,337,750.957,349,738.957" style="stroke:#181818;stroke-width:0.5;"/><polygon fill="#F1F1F1" points="269.5,797.957,438.5,797.957,428.5,814.9414,438.5,831.9258,269.5,831.9258" style="stroke:#181818;stroke-width:0.5;"/><text fill="#000000" font-family="sans-serif" font-size="12" lengthAdjust="spacing" textLength="139" x="279.5" y="819.0957">Non-blocking receiving</text><rect fill="#ADD8E6" height="33.9688" rx="12.5" ry="12.5" style="stroke:#181818;stroke-width:0.5;" width="139" x="279.5" y="944.3281"/><text fill="#000000" font-family="sans-serif" font-size="12" lengthAdjust="spacing" textLength="119" x="289.5" y="965.4668">Processing the data</text><polygon fill="#F1F1F1" points="50,998.2969,417,998.2969,429,1010.2969,417,1022.2969,50,1022.2969,38,1010.2969,50,998.2969" style="stroke:#181818;stroke-width:0.5;"/><text fill="#000000" font-family="sans-serif" font-size="11" lengthAdjust="spacing" textLength="21" x="237.5" y="1032.5073">yes</text><text fill="#000000" font-family="sans-serif" font-size="11" lengthAdjust="spacing" textLength="367" x="50" y="1014.105">Result not equalt to MQTT_SUCCESS nor MQTT_PENDING_DATA?</text><rect fill="#F1F1F1" height="33.9688" rx="12.5" ry="12.5" style="stroke:#181818;stroke-width:0.5;" width="122" x="172.5" y="1055.1016"/><text fill="#000000" font-family="sans-serif" font-size="12" lengthAdjust="spacing" textLength="102" x="182.5" y="1076.2402">Error processing</text><polygon fill="#F1F1F1" points="477.5,998.2969,571.5,998.2969,583.5,1010.2969,571.5,1022.2969,477.5,1022.2969,465.5,1010.2969,477.5,998.2969" style="stroke:#181818;stroke-width:0.5;"/><text fill="#000000" font-family="sans-serif" font-size="11" lengthAdjust="spacing" textLength="21" x="528.5" y="1032.5073">yes</text><text fill="#000000" font-family="sans-serif" font-size="11" lengthAdjust="spacing" textLength="94" x="477.5" y="1014.105">data not empty?</text><polygon fill="#F1F1F1" points="449,1055.1016,600,1055.1016,610,1072.0859,600,1089.0703,449,1089.0703" style="stroke:#181818;stroke-width:0.5;"/><text fill="#000000" font-family="sans-serif" font-size="12" lengthAdjust="spacing" textLength="131" x="459" y="1076.2402">Non-blocking sending</text><polygon fill="#F1F1F1" points="349,900.3281,361,912.3281,349,924.3281,337,912.3281,349,900.3281" style="stroke:#181818;stroke-width:0.5;"/><polygon fill="#F1F1F1" points="238,1129.0703,460,1129.0703,472,1141.0703,460,1153.0703,238,1153.0703,226,1141.0703,238,1129.0703" style="stroke:#181818;stroke-width:0.5;"/><text fill="#000000" font-family="sans-serif" font-size="11" lengthAdjust="spacing" textLength="222" x="238" y="1144.8784">Result equal to MQTT_PENDING_DATA?</text><polygon fill="#F1F1F1" points="306,851.9258,392,851.9258,404,863.9258,392,875.9258,306,875.9258,294,863.9258,306,851.9258" style="stroke:#181818;stroke-width:0.5;"/><text fill="#000000" font-family="sans-serif" font-size="11" lengthAdjust="spacing" textLength="21" x="353" y="886.1362">yes</text><text fill="#000000" font-family="sans-serif" font-size="11" lengthAdjust="spacing" textLength="86" x="306" y="867.7339">data received?</text><polygon fill="#F1F1F1" points="349,1173.0703,361,1185.0703,349,1197.0703,337,1185.0703,349,1173.0703" style="stroke:#181818;stroke-width:0.5;"/><polygon fill="#F1F1F1" points="323,319.8438,375,319.8438,387,331.8438,375,343.8438,323,343.8438,311,331.8438,323,319.8438" style="stroke:#181818;stroke-width:0.5;"/><text fill="#000000" font-family="sans-serif" font-size="11" lengthAdjust="spacing" textLength="52" x="323" y="335.6519">stopped?</text><rect fill="#ADD8E6" height="33.9688" rx="12.5" ry="12.5" style="stroke:#181818;stroke-width:0.5;" width="209" x="244.5" y="1239.0703"/><text fill="#000000" font-family="sans-serif" font-size="12" lengthAdjust="spacing" textLength="189" x="254.5" y="1260.209">Releasing the library resources</text><rect fill="#F1F1F1" height="33.9688" rx="12.5" ry="12.5" style="stroke:#181818;stroke-width:0.5;" width="172" x="263" y="1293.0391"/><text fill="#000000" font-family="sans-serif" font-size="12" lengthAdjust="spacing" textLength="152" x="273" y="1314.1777">Closing TCP/IP connection</text><ellipse cx="349" cy="1358.0078" fill="none" rx="11" ry="11" style="stroke:#222222;stroke-width:1.0;"/><ellipse cx="349" cy="1358.0078" fill="#222222" rx="6" ry="6" style="stroke:#222222;stroke-width:1.0;"/><line style="stroke:#181818;stroke-width:1.0;" x1="349" x2="349" y1="30" y2="50"/><polygon fill="#181818" points="345,40,349,50,353,40,349,44" style="stroke:#181818;stroke-width:1.0;"/><line style="stroke:#181818;stroke-width:1.0;" x1="349" x2="349" y1="83.9688" y2="103.9688"/><polygon fill="#181818" points="345,93.9688,349,103.9688,353,93.9688,349,97.9688" style="stroke:#181818;stroke-width:1.0;"/><line style="stroke:#181818;stroke-width:1.0;" x1="349" x2="349" y1="137.9375" y2="157.9375"/><polygon fill="#181818" points="345,147.9375,349,157.9375,353,147.9375,349,151.9375" style="stroke:#181818;stroke-width:1.0;"/><line style="stroke:#181818;stroke-width:1.0;" x1="349" x2="349" y1="191.9063" y2="211.9063"/><polygon fill="#181818" points="345,201.9063,349,211.9063,353,201.9063,349,205.9063" style="stroke:#181818;stroke-width:1.0;"/><line style="stroke:#181818;stroke-width:1.0;" x1="349" x2="349" y1="245.875" y2="265.875"/><polygon fill="#181818" points="345,255.875,349,265.875,353,255.875,349,259.875" style="stroke:#181818;stroke-width:1.0;"/><line style="stroke:#181818;stroke-width:1.0;" x1="233.5" x2="233.5" y1="588.1836" y2="620.9883"/><polygon fill="#181818" points="229.5,610.9883,233.5,620.9883,237.5,610.9883,233.5,614.9883" style="stroke:#181818;stroke-width:1.0;"/><line style="stroke:#181818;stroke-width:1.0;" x1="233.5" x2="233.5" y1="654.957" y2="674.957"/><polygon fill="#181818" points="229.5,664.957,233.5,674.957,237.5,664.957,233.5,668.957" style="stroke:#181818;stroke-width:1.0;"/><line style="stroke:#181818;stroke-width:1.0;" x1="524.5" x2="524.5" y1="588.1836" y2="620.9883"/><polygon fill="#181818" points="520.5,610.9883,524.5,620.9883,528.5,610.9883,524.5,614.9883" style="stroke:#181818;stroke-width:1.0;"/><line style="stroke:#181818;stroke-width:1.0;" x1="524.5" x2="524.5" y1="654.957" y2="674.957"/><polygon fill="#181818" points="520.5,664.957,524.5,674.957,528.5,664.957,524.5,668.957" style="stroke:#181818;stroke-width:1.0;"/><line style="stroke:#181818;stroke-width:1.0;" x1="429" x2="465.5" y1="576.1836" y2="576.1836"/><polygon fill="#181818" points="455.5,572.1836,465.5,576.1836,455.5,580.1836,459.5,576.1836" style="stroke:#181818;stroke-width:1.0;"/><line style="stroke:#181818;stroke-width:1.0;" x1="349" x2="349" y1="544.1836" y2="549.1836"/><line style="stroke:#181818;stroke-width:1.0;" x1="349" x2="233.5" y1="549.1836" y2="549.1836"/><line style="stroke:#181818;stroke-width:1.0;" x1="233.5" x2="233.5" y1="549.1836" y2="564.1836"/><polygon fill="#181818" points="229.5,554.1836,233.5,564.1836,237.5,554.1836,233.5,558.1836" style="stroke:#181818;stroke-width:1.0;"/><line style="stroke:#181818;stroke-width:1.0;" x1="583.5" x2="624" y1="576.1836" y2="576.1836"/><line style="stroke:#181818;stroke-width:1.0;" x1="624" x2="624" y1="576.1836" y2="674.957"/><polygon fill="#181818" points="620,664.957,624,674.957,628,664.957,624,668.957" style="stroke:#181818;stroke-width:1.0;"/><line style="stroke:#181818;stroke-width:1.0;" x1="233.5" x2="624" y1="674.957" y2="674.957"/><line style="stroke:#181818;stroke-width:1.0;" x1="349" x2="349" y1="490.2148" y2="510.2148"/><polygon fill="#181818" points="345,500.2148,349,510.2148,353,500.2148,349,504.2148" style="stroke:#181818;stroke-width:1.0;"/><line style="stroke:#181818;stroke-width:1.0;" x1="472" x2="642" y1="706.957" y2="706.957"/><polygon fill="#181818" points="638,610.0859,642,600.0859,646,610.0859,642,606.0859" style="stroke:#181818;stroke-width:1.0;"/><line style="stroke:#181818;stroke-width:1.0;" x1="642" x2="642" y1="478.2148" y2="706.957"/><line style="stroke:#181818;stroke-width:1.0;" x1="642" x2="361" y1="478.2148" y2="478.2148"/><polygon fill="#181818" points="371,474.2148,361,478.2148,371,482.2148,367,478.2148" style="stroke:#181818;stroke-width:1.0;"/><line style="stroke:#181818;stroke-width:1.0;" x1="349" x2="349" y1="674.957" y2="694.957"/><polygon fill="#181818" points="345,684.957,349,694.957,353,684.957,349,688.957" style="stroke:#181818;stroke-width:1.0;"/><line style="stroke:#181818;stroke-width:1.0;" x1="349" x2="349" y1="446.2148" y2="466.2148"/><polygon fill="#181818" points="345,456.2148,349,466.2148,353,456.2148,349,460.2148" style="stroke:#181818;stroke-width:1.0;"/><line style="stroke:#181818;stroke-width:1.0;" x1="349" x2="349" y1="387.8438" y2="412.2461"/><polygon fill="#181818" points="345,402.2461,349,412.2461,353,402.2461,349,406.2461" style="stroke:#181818;stroke-width:1.0;"/><line style="stroke:#181818;stroke-width:1.0;" x1="398.5" x2="660" y1="375.8438" y2="375.8438"/><polygon fill="#181818" points="656,555.6016,660,565.6016,664,555.6016,660,559.6016" style="stroke:#181818;stroke-width:1.0;"/><line style="stroke:#181818;stroke-width:1.0;" x1="660" x2="660" y1="375.8438" y2="750.957"/><line style="stroke:#181818;stroke-width:1.0;" x1="660" x2="361" y1="750.957" y2="750.957"/><polygon fill="#181818" points="371,746.957,361,750.957,371,754.957,367,750.957" style="stroke:#181818;stroke-width:1.0;"/><line style="stroke:#181818;stroke-width:1.0;" x1="349" x2="349" y1="718.957" y2="738.957"/><polygon fill="#181818" points="345,728.957,349,738.957,353,728.957,349,732.957" style="stroke:#181818;stroke-width:1.0;"/><line style="stroke:#181818;stroke-width:1.0;" x1="349" x2="349" y1="762.957" y2="797.957"/><polygon fill="#181818" points="345,787.957,349,797.957,353,787.957,349,791.957" style="stroke:#181818;stroke-width:1.0;"/><line style="stroke:#181818;stroke-width:1.0;" x1="233.5" x2="233.5" y1="1022.2969" y2="1055.1016"/><polygon fill="#181818" points="229.5,1045.1016,233.5,1055.1016,237.5,1045.1016,233.5,1049.1016" style="stroke:#181818;stroke-width:1.0;"/><line style="stroke:#181818;stroke-width:1.0;" x1="233.5" x2="233.5" y1="1089.0703" y2="1109.0703"/><polygon fill="#181818" points="229.5,1099.0703,233.5,1109.0703,237.5,1099.0703,233.5,1103.0703" style="stroke:#181818;stroke-width:1.0;"/><line style="stroke:#181818;stroke-width:1.0;" x1="524.5" x2="524.5" y1="1022.2969" y2="1055.1016"/><polygon fill="#181818" points="520.5,1045.1016,524.5,1055.1016,528.5,1045.1016,524.5,1049.1016" style="stroke:#181818;stroke-width:1.0;"/><line style="stroke:#181818;stroke-width:1.0;" x1="524.5" x2="524.5" y1="1089.0703" y2="1109.0703"/><polygon fill="#181818" points="520.5,1099.0703,524.5,1109.0703,528.5,1099.0703,524.5,1103.0703" style="stroke:#181818;stroke-width:1.0;"/><line style="stroke:#181818;stroke-width:1.0;" x1="429" x2="465.5" y1="1010.2969" y2="1010.2969"/><polygon fill="#181818" points="455.5,1006.2969,465.5,1010.2969,455.5,1014.2969,459.5,1010.2969" style="stroke:#181818;stroke-width:1.0;"/><line style="stroke:#181818;stroke-width:1.0;" x1="349" x2="349" y1="978.2969" y2="983.2969"/><line style="stroke:#181818;stroke-width:1.0;" x1="349" x2="233.5" y1="983.2969" y2="983.2969"/><line style="stroke:#181818;stroke-width:1.0;" x1="233.5" x2="233.5" y1="983.2969" y2="998.2969"/><polygon fill="#181818" points="229.5,988.2969,233.5,998.2969,237.5,988.2969,233.5,992.2969" style="stroke:#181818;stroke-width:1.0;"/><line style="stroke:#181818;stroke-width:1.0;" x1="583.5" x2="624" y1="1010.2969" y2="1010.2969"/><line style="stroke:#181818;stroke-width:1.0;" x1="624" x2="624" y1="1010.2969" y2="1109.0703"/><polygon fill="#181818" points="620,1099.0703,624,1109.0703,628,1099.0703,624,1103.0703" style="stroke:#181818;stroke-width:1.0;"/><line style="stroke:#181818;stroke-width:1.0;" x1="233.5" x2="624" y1="1109.0703" y2="1109.0703"/><line style="stroke:#181818;stroke-width:1.0;" x1="349" x2="349" y1="924.3281" y2="944.3281"/><polygon fill="#181818" points="345,934.3281,349,944.3281,353,934.3281,349,938.3281" style="stroke:#181818;stroke-width:1.0;"/><line style="stroke:#181818;stroke-width:1.0;" x1="472" x2="642" y1="1141.0703" y2="1141.0703"/><polygon fill="#181818" points="638,1044.1992,642,1034.1992,646,1044.1992,642,1040.1992" style="stroke:#181818;stroke-width:1.0;"/><line style="stroke:#181818;stroke-width:1.0;" x1="642" x2="642" y1="912.3281" y2="1141.0703"/><line style="stroke:#181818;stroke-width:1.0;" x1="642" x2="361" y1="912.3281" y2="912.3281"/><polygon fill="#181818" points="371,908.3281,361,912.3281,371,916.3281,367,912.3281" style="stroke:#181818;stroke-width:1.0;"/><line style="stroke:#181818;stroke-width:1.0;" x1="349" x2="349" y1="1109.0703" y2="1129.0703"/><polygon fill="#181818" points="345,1119.0703,349,1129.0703,353,1119.0703,349,1123.0703" style="stroke:#181818;stroke-width:1.0;"/><line style="stroke:#181818;stroke-width:1.0;" x1="349" x2="349" y1="875.9258" y2="900.3281"/><polygon fill="#181818" points="345,890.3281,349,900.3281,353,890.3281,349,894.3281" style="stroke:#181818;stroke-width:1.0;"/><line style="stroke:#181818;stroke-width:1.0;" x1="404" x2="660" y1="863.9258" y2="863.9258"/><polygon fill="#181818" points="656,1024.1992,660,1034.1992,664,1024.1992,660,1028.1992" style="stroke:#181818;stroke-width:1.0;"/><line style="stroke:#181818;stroke-width:1.0;" x1="660" x2="660" y1="863.9258" y2="1185.0703"/><line style="stroke:#181818;stroke-width:1.0;" x1="660" x2="361" y1="1185.0703" y2="1185.0703"/><polygon fill="#181818" points="371,1181.0703,361,1185.0703,371,1189.0703,367,1185.0703" style="stroke:#181818;stroke-width:1.0;"/><line style="stroke:#181818;stroke-width:1.0;" x1="349" x2="349" y1="1153.0703" y2="1173.0703"/><polygon fill="#181818" points="345,1163.0703,349,1173.0703,353,1163.0703,349,1167.0703" style="stroke:#181818;stroke-width:1.0;"/><line style="stroke:#181818;stroke-width:1.0;" x1="349" x2="349" y1="831.9258" y2="851.9258"/><polygon fill="#181818" points="345,841.9258,349,851.9258,353,841.9258,349,845.9258" style="stroke:#181818;stroke-width:1.0;"/><line style="stroke:#181818;stroke-width:1.0;" x1="349" x2="349" y1="343.8438" y2="363.8438"/><polygon fill="#181818" points="345,353.8438,349,363.8438,353,353.8438,349,357.8438" style="stroke:#181818;stroke-width:1.0;"/><line style="stroke:#181818;stroke-width:1.0;" x1="349" x2="349" y1="1197.0703" y2="1207.0703"/><line style="stroke:#181818;stroke-width:1.0;" x1="349" x2="678" y1="1207.0703" y2="1207.0703"/><polygon fill="#181818" points="674,778.457,678,768.457,682,778.457,678,774.457" style="stroke:#181818;stroke-width:1.0;"/><line style="stroke:#181818;stroke-width:1.0;" x1="678" x2="678" y1="331.8438" y2="1207.0703"/><line style="stroke:#181818;stroke-width:1.0;" x1="678" x2="387" y1="331.8438" y2="331.8438"/><polygon fill="#181818" points="397,327.8438,387,331.8438,397,335.8438,393,331.8438" style="stroke:#181818;stroke-width:1.0;"/><line style="stroke:#181818;stroke-width:1.0;" x1="311" x2="24" y1="331.8438" y2="331.8438"/><polygon fill="#181818" points="20,764.457,24,774.457,28,764.457,24,768.457" style="stroke:#181818;stroke-width:1.0;"/><line style="stroke:#181818;stroke-width:1.0;" x1="24" x2="24" y1="331.8438" y2="1219.0703"/><line style="stroke:#181818;stroke-width:1.0;" x1="24" x2="349" y1="1219.0703" y2="1219.0703"/><line style="stroke:#181818;stroke-width:1.0;" x1="349" x2="349" y1="1219.0703" y2="1239.0703"/><polygon fill="#181818" points="345,1229.0703,349,1239.0703,353,1229.0703,349,1233.0703" style="stroke:#181818;stroke-width:1.0;"/><line style="stroke:#181818;stroke-width:1.0;" x1="349" x2="349" y1="299.8438" y2="319.8438"/><polygon fill="#181818" points="345,309.8438,349,319.8438,353,309.8438,349,313.8438" style="stroke:#181818;stroke-width:1.0;"/><line style="stroke:#181818;stroke-width:1.0;" x1="349" x2="349" y1="1273.0391" y2="1293.0391"/><polygon fill="#181818" points="345,1283.0391,349,1293.0391,353,1283.0391,349,1287.0391" style="stroke:#181818;stroke-width:1.0;"/><line style="stroke:#181818;stroke-width:1.0;" x1="349" x2="349" y1="1327.0078" y2="1347.0078"/><polygon fill="#181818" points="345,1337.0078,349,1347.0078,353,1337.0078,349,1341.0078" style="stroke:#181818;stroke-width:1.0;"/><!--SRC=[xLF1JeD04BtlLupnqXwCTqfg6aeC1oiMzDeiT82DsrtS7JJrwzq5sqhL-0Do89itRzvxCybSj8RNEmwTnISq94ekamfqLJ5Bt10B4YL8S2dUXQeXZzBh99qn5aHQLQBkZ4UfGI2nG-CAbrBK3HMomt6dvqXH66xsOzQvq8aKn2v28OLjJjPGQgMm9A6LOxmrGkB4acvRtDvCcQWcVGumN5YFU4K5aptQAGC8CYJoMhXhQGzRJdpcO8CjSWBt0lWIB3MwH6iFkGvi0EUoHjj90gK9yANZxaaQxXxoV9CzHb6SPQva1Y2DLyjaTRjPBlB5UI3_1R4nZjiUtGOJb1QzaxSTV7pc7mLMMbqLKfVFFgf5jVKYONZVKTlHV3x8ERGwpJeixdEAVeBZ0EEyR6XaOnE39OfNRmDXcAZ1XXtI3jNlw__VyvzxTl- -PNGXQvJ8xTbzE0UhE-DcwQzHQllRaVZp-000]--></g></svg>