<?xml version="1.0" encoding="us-ascii" standalone="no"?><svg xmlns="http://www.w3.org/2000/svg" xmlns:xlink="http://www.w3.org/1999/xlink" contentStyleType="text/css" height="2039px" preserveAspectRatio="none" style="width:616px;height:2039px;background:#FFFFFF;" version="1.1" viewBox="0 0 616 2039" width="616px" zoomAndPan="magnify"><defs/><g><ellipse cx="269.5" cy="20" fill="#222222" rx="10" ry="10" style="stroke:#222222;stroke-width:1.0;"/><rect fill="#F1F1F1" height="33.9688" rx="12.5" ry="12.5" style="stroke:#181818;stroke-width:0.5;" width="116" x="211.5" y="50"/><text fill="#000000" font-family="sans-serif" font-size="12" lengthAdjust="spacing" textLength="96" x="221.5" y="71.1387">Initializing TCP/IP</text><rect fill="#F1F1F1" height="33.9688" rx="12.5" ry="12.5" style="stroke:#181818;stroke-width:0.5;" width="146" x="196.5" y="103.9688"/><text fill="#000000" font-family="sans-serif" font-size="12" lengthAdjust="spacing" textLength="126" x="206.5" y="125.1074">Configuring the timer</text><rect fill="#ADD8E6" height="33.9688" rx="12.5" ry="12.5" style="stroke:#181818;stroke-width:0.5;" width="143" x="198" y="157.9375"/><text fill="#000000" font-family="sans-serif" font-size="12" lengthAdjust="spacing" textLength="123" x="208" y="179.0762">Initializing the library</text><rect fill="#ADD8E6" height="33.9688" rx="12.5" ry="12.5" style="stroke:#181818;stroke-width:0.5;" width="153" x="193" y="211.9063"/><text fill="#000000" font-family="sans-serif" font-size="12" lengthAdjust="spacing" textLength="133" x="203" y="233.0449">Configuring the library</text><rect fill="#F1F1F1" height="33.9688" rx="12.5" ry="12.5" style="stroke:#181818;stroke-width:0.5;" width="199" x="170" y="265.875"/><text fill="#000000" font-family="sans-serif" font-size="12" lengthAdjust="spacing" textLength="179" x="180" y="287.0137">Establishing TCP/IP connection</text><rect fill="#F1F1F1" height="33.9688" rx="12.5" ry="12.5" style="stroke:#181818;stroke-width:0.5;" width="134" x="202.5" y="423.9565"/><text fill="#000000" font-family="sans-serif" font-size="12" lengthAdjust="spacing" textLength="114" x="212.5" y="445.0952">Setting empty data</text><rect fill="#ADD8E6" height="33.9688" rx="12.5" ry="12.5" style="stroke:#181818;stroke-width:0.5;" width="139" x="200" y="521.9253"/><text fill="#000000" font-family="sans-serif" font-size="12" lengthAdjust="spacing" textLength="119" x="210" y="543.064">Processing the data</text><polygon fill="#F1F1F1" points="121.5,575.894,417.5,575.894,429.5,587.894,417.5,599.894,121.5,599.894,109.5,587.894,121.5,575.894" style="stroke:#181818;stroke-width:0.5;"/><text fill="#000000" font-family="sans-serif" font-size="11" font-style="italic" lengthAdjust="spacing" textLength="11" x="121.5" y="591.7021">rc</text><text fill="#000000" font-family="sans-serif" font-size="11" lengthAdjust="spacing" textLength="4" x="132.5" y="591.7021">&#160;</text><text fill="#000000" font-family="sans-serif" font-size="11" font-weight="bold" lengthAdjust="spacing" textLength="16" x="136.5" y="591.7021">NE</text><text fill="#000000" font-family="sans-serif" font-size="11" lengthAdjust="spacing" textLength="4" x="156.5" y="591.7021">(</text><text fill="#000000" font-family="sans-serif" font-size="11" font-style="italic" lengthAdjust="spacing" textLength="90" x="160.5" y="591.7021">MQTT_SUCCESS</text><text fill="#000000" font-family="sans-serif" font-size="11" lengthAdjust="spacing" textLength="4" x="250.5" y="591.7021">&#160;</text><text fill="#000000" font-family="sans-serif" font-size="11" font-weight="bold" lengthAdjust="spacing" textLength="24" x="254.5" y="591.7021">and</text><text fill="#000000" font-family="sans-serif" font-size="11" lengthAdjust="spacing" textLength="4" x="278.5" y="591.7021">&#160;</text><text fill="#000000" font-family="sans-serif" font-size="11" font-style="italic" lengthAdjust="spacing" textLength="125" x="282.5" y="591.7021">MQTT_PENDING_DATA</text><text fill="#000000" font-family="sans-serif" font-size="11" lengthAdjust="spacing" textLength="10" x="407.5" y="591.7021">)?</text><text fill="#000000" font-family="sans-serif" font-size="11" lengthAdjust="spacing" textLength="21" x="88.5" y="585.2998">yes</text><text fill="#000000" font-family="sans-serif" font-size="11" lengthAdjust="spacing" textLength="14" x="429.5" y="585.2998">no</text><rect fill="#F1F1F1" height="33.9688" rx="12.5" ry="12.5" style="stroke:#181818;stroke-width:0.5;" width="122" x="38.5" y="609.894"/><text fill="#000000" font-family="sans-serif" font-size="12" lengthAdjust="spacing" textLength="102" x="48.5" y="631.0327">Error processing</text><polygon fill="#F1F1F1" points="364,658.2964,515,658.2964,525,675.2808,515,692.2651,364,692.2651" style="stroke:#181818;stroke-width:0.5;"/><text fill="#000000" font-family="sans-serif" font-size="12" lengthAdjust="spacing" textLength="131" x="374" y="679.4351">Non-blocking sending</text><polygon fill="#F1F1F1" points="392.5,609.894,486.5,609.894,498.5,621.894,486.5,633.894,392.5,633.894,380.5,621.894,392.5,609.894" style="stroke:#181818;stroke-width:0.5;"/><text fill="#000000" font-family="sans-serif" font-size="11" lengthAdjust="spacing" textLength="21" x="443.5" y="644.1045">yes</text><text fill="#000000" font-family="sans-serif" font-size="11" lengthAdjust="spacing" textLength="94" x="392.5" y="625.7021">data not empty?</text><text fill="#000000" font-family="sans-serif" font-size="11" lengthAdjust="spacing" textLength="14" x="498.5" y="619.2998">no</text><polygon fill="#F1F1F1" points="439.5,712.2651,451.5,724.2651,439.5,736.2651,427.5,724.2651,439.5,712.2651" style="stroke:#181818;stroke-width:0.5;"/><polygon fill="#F1F1F1" points="269.5,742.2651,281.5,754.2651,269.5,766.2651,257.5,754.2651,269.5,742.2651" style="stroke:#181818;stroke-width:0.5;"/><polygon fill="#F1F1F1" points="269.5,477.9253,281.5,489.9253,269.5,501.9253,257.5,489.9253,269.5,477.9253" style="stroke:#181818;stroke-width:0.5;"/><polygon fill="#F1F1F1" points="186,786.2651,353,786.2651,365,798.2651,353,810.2651,186,810.2651,174,798.2651,186,786.2651" style="stroke:#181818;stroke-width:0.5;"/><text fill="#000000" font-family="sans-serif" font-size="11" font-style="italic" lengthAdjust="spacing" textLength="11" x="186" y="802.0732">rc</text><text fill="#000000" font-family="sans-serif" font-size="11" lengthAdjust="spacing" textLength="4" x="197" y="802.0732">&#160;</text><text fill="#000000" font-family="sans-serif" font-size="11" font-weight="bold" lengthAdjust="spacing" textLength="17" x="201" y="802.0732">EQ</text><text fill="#000000" font-family="sans-serif" font-size="11" lengthAdjust="spacing" textLength="4" x="218" y="802.0732">&#160;</text><text fill="#000000" font-family="sans-serif" font-size="11" font-style="italic" lengthAdjust="spacing" textLength="125" x="222" y="802.0732">MQTT_PENDING_DATA</text><text fill="#000000" font-family="sans-serif" font-size="11" lengthAdjust="spacing" textLength="6" x="347" y="802.0732">?</text><polygon fill="#F1F1F1" points="232,375.5542,307,375.5542,319,387.5542,307,399.5542,232,399.5542,220,387.5542,232,375.5542" style="stroke:#181818;stroke-width:0.5;"/><text fill="#000000" font-family="sans-serif" font-size="11" lengthAdjust="spacing" textLength="21" x="273.5" y="409.7646">yes</text><text fill="#000000" font-family="sans-serif" font-size="11" lengthAdjust="spacing" textLength="75" x="232" y="391.3623">timer raised?</text><text fill="#000000" font-family="sans-serif" font-size="11" lengthAdjust="spacing" textLength="14" x="319" y="384.96">no</text><polygon fill="#F1F1F1" points="269.5,830.2651,281.5,842.2651,269.5,854.2651,257.5,842.2651,269.5,830.2651" style="stroke:#181818;stroke-width:0.5;"/><polygon fill="#F1F1F1" points="190,874.2651,359,874.2651,349,891.2495,359,908.2339,190,908.2339" style="stroke:#181818;stroke-width:0.5;"/><text fill="#000000" font-family="sans-serif" font-size="12" lengthAdjust="spacing" textLength="139" x="200" y="895.4038">Non-blocking receiving</text><rect fill="#F1F1F1" height="33.9688" rx="12.5" ry="12.5" style="stroke:#181818;stroke-width:0.5;" width="115" x="212" y="976.6362"/><text fill="#000000" font-family="sans-serif" font-size="12" lengthAdjust="spacing" textLength="95" x="222" y="997.7749">Setting the data</text><rect fill="#ADD8E6" height="33.9688" rx="12.5" ry="12.5" style="stroke:#181818;stroke-width:0.5;" width="139" x="200" y="1093.6206"/><text fill="#000000" font-family="sans-serif" font-size="12" lengthAdjust="spacing" textLength="119" x="210" y="1114.7593">Processing the data</text><polygon fill="#F1F1F1" points="121,1147.5894,418,1147.5894,430,1159.5894,418,1171.5894,121,1171.5894,109,1159.5894,121,1147.5894" style="stroke:#181818;stroke-width:0.5;"/><text fill="#000000" font-family="sans-serif" font-size="11" font-style="italic" lengthAdjust="spacing" textLength="11" x="121" y="1163.3975">rc</text><text fill="#000000" font-family="sans-serif" font-size="11" lengthAdjust="spacing" textLength="4" x="132" y="1163.3975">&#160;</text><text fill="#000000" font-family="sans-serif" font-size="11" font-weight="bold" lengthAdjust="spacing" textLength="16" x="136" y="1163.3975">NE</text><text fill="#000000" font-family="sans-serif" font-size="11" lengthAdjust="spacing" textLength="4" x="156" y="1163.3975">(</text><text fill="#000000" font-family="sans-serif" font-size="11" font-style="italic" lengthAdjust="spacing" textLength="90" x="160" y="1163.3975">MQTT_SUCCESS</text><text fill="#000000" font-family="sans-serif" font-size="11" lengthAdjust="spacing" textLength="4" x="250" y="1163.3975">&#160;</text><text fill="#000000" font-family="sans-serif" font-size="11" font-weight="bold" lengthAdjust="spacing" textLength="24" x="254" y="1163.3975">and</text><text fill="#000000" font-family="sans-serif" font-size="11" lengthAdjust="spacing" textLength="136" x="282" y="1163.3975">MQTT_PENDING_DATA)?</text><text fill="#000000" font-family="sans-serif" font-size="11" lengthAdjust="spacing" textLength="21" x="88" y="1156.9951">yes</text><text fill="#000000" font-family="sans-serif" font-size="11" lengthAdjust="spacing" textLength="14" x="430" y="1156.9951">no</text><rect fill="#F1F1F1" height="33.9688" rx="12.5" ry="12.5" style="stroke:#181818;stroke-width:0.5;" width="122" x="38" y="1181.5894"/><text fill="#000000" font-family="sans-serif" font-size="12" lengthAdjust="spacing" textLength="102" x="48" y="1202.728">Error processing</text><polygon fill="#F1F1F1" points="364.5,1229.9917,515.5,1229.9917,525.5,1246.9761,515.5,1263.9604,364.5,1263.9604" style="stroke:#181818;stroke-width:0.5;"/><text fill="#000000" font-family="sans-serif" font-size="12" lengthAdjust="spacing" textLength="131" x="374.5" y="1251.1304">Non-blocking sending</text><polygon fill="#F1F1F1" points="393,1181.5894,487,1181.5894,499,1193.5894,487,1205.5894,393,1205.5894,381,1193.5894,393,1181.5894" style="stroke:#181818;stroke-width:0.5;"/><text fill="#000000" font-family="sans-serif" font-size="11" lengthAdjust="spacing" textLength="21" x="444" y="1215.7998">yes</text><text fill="#000000" font-family="sans-serif" font-size="11" lengthAdjust="spacing" textLength="94" x="393" y="1197.3975">data not empty?</text><text fill="#000000" font-family="sans-serif" font-size="11" lengthAdjust="spacing" textLength="14" x="499" y="1190.9951">no</text><polygon fill="#F1F1F1" points="440,1283.9604,452,1295.9604,440,1307.9604,428,1295.9604,440,1283.9604" style="stroke:#181818;stroke-width:0.5;"/><polygon fill="#F1F1F1" points="269.5,1313.9604,281.5,1325.9604,269.5,1337.9604,257.5,1325.9604,269.5,1313.9604" style="stroke:#181818;stroke-width:0.5;"/><polygon fill="#F1F1F1" points="269.5,1030.605,281.5,1042.605,269.5,1054.605,257.5,1042.605,269.5,1030.605" style="stroke:#181818;stroke-width:0.5;"/><polygon fill="#F1F1F1" points="186,1357.9604,353,1357.9604,365,1369.9604,353,1381.9604,186,1381.9604,174,1369.9604,186,1357.9604" style="stroke:#181818;stroke-width:0.5;"/><text fill="#000000" font-family="sans-serif" font-size="11" font-style="italic" lengthAdjust="spacing" textLength="11" x="186" y="1373.7686">rc</text><text fill="#000000" font-family="sans-serif" font-size="11" lengthAdjust="spacing" textLength="4" x="197" y="1373.7686">&#160;</text><text fill="#000000" font-family="sans-serif" font-size="11" font-weight="bold" lengthAdjust="spacing" textLength="17" x="201" y="1373.7686">EQ</text><text fill="#000000" font-family="sans-serif" font-size="11" lengthAdjust="spacing" textLength="4" x="218" y="1373.7686">&#160;</text><text fill="#000000" font-family="sans-serif" font-size="11" font-style="italic" lengthAdjust="spacing" textLength="125" x="222" y="1373.7686">MQTT_PENDING_DATA</text><text fill="#000000" font-family="sans-serif" font-size="11" lengthAdjust="spacing" textLength="6" x="347" y="1373.7686">?</text><polygon fill="#F1F1F1" points="226.5,928.2339,312.5,928.2339,324.5,940.2339,312.5,952.2339,226.5,952.2339,214.5,940.2339,226.5,928.2339" style="stroke:#181818;stroke-width:0.5;"/><text fill="#000000" font-family="sans-serif" font-size="11" lengthAdjust="spacing" textLength="21" x="273.5" y="962.4443">yes</text><text fill="#000000" font-family="sans-serif" font-size="11" lengthAdjust="spacing" textLength="86" x="226.5" y="944.042">data received?</text><text fill="#000000" font-family="sans-serif" font-size="11" lengthAdjust="spacing" textLength="14" x="324.5" y="937.6396">no</text><polygon fill="#F1F1F1" points="269.5,1401.9604,281.5,1413.9604,269.5,1425.9604,257.5,1413.9604,269.5,1401.9604" style="stroke:#181818;stroke-width:0.5;"/><rect fill="#ADD8E6" height="33.9688" rx="12.5" ry="12.5" style="stroke:#181818;stroke-width:0.5;" width="195" x="172" y="1494.3628"/><text fill="#000000" font-family="sans-serif" font-size="12" lengthAdjust="spacing" textLength="57" x="182" y="1515.5015">Preparing</text><text fill="#000000" font-family="sans-serif" font-size="12" font-style="italic" lengthAdjust="spacing" textLength="69" x="243" y="1515.5015">SUBSCRIBE</text><text fill="#000000" font-family="sans-serif" font-size="12" lengthAdjust="spacing" textLength="41" x="316" y="1515.5015">packet</text><polygon fill="#F1F1F1" points="194,1563.3315,345,1563.3315,355,1580.3159,345,1597.3003,194,1597.3003" style="stroke:#181818;stroke-width:0.5;"/><text fill="#000000" font-family="sans-serif" font-size="12" lengthAdjust="spacing" textLength="131" x="204" y="1584.4702">Non-blocking sending</text><polygon fill="#F1F1F1" points="239.5,1445.9604,299.5,1445.9604,311.5,1457.9604,299.5,1469.9604,239.5,1469.9604,227.5,1457.9604,239.5,1445.9604" style="stroke:#181818;stroke-width:0.5;"/><text fill="#000000" font-family="sans-serif" font-size="11" lengthAdjust="spacing" textLength="21" x="273.5" y="1480.1709">yes</text><text fill="#000000" font-family="sans-serif" font-size="11" lengthAdjust="spacing" textLength="60" x="239.5" y="1461.7686">subscribe?</text><text fill="#000000" font-family="sans-serif" font-size="11" lengthAdjust="spacing" textLength="14" x="311.5" y="1455.3662">no</text><polygon fill="#F1F1F1" points="269.5,1617.3003,281.5,1629.3003,269.5,1641.3003,257.5,1629.3003,269.5,1617.3003" style="stroke:#181818;stroke-width:0.5;"/><rect fill="#ADD8E6" height="33.9688" rx="12.5" ry="12.5" style="stroke:#181818;stroke-width:0.5;" width="178" x="180.5" y="1709.7026"/><text fill="#000000" font-family="sans-serif" font-size="12" lengthAdjust="spacing" textLength="57" x="190.5" y="1730.8413">Preparing</text><text fill="#000000" font-family="sans-serif" font-size="12" font-style="italic" lengthAdjust="spacing" textLength="52" x="251.5" y="1730.8413">PUBLISH</text><text fill="#000000" font-family="sans-serif" font-size="12" lengthAdjust="spacing" textLength="41" x="307.5" y="1730.8413">packet</text><polygon fill="#F1F1F1" points="194,1778.6714,345,1778.6714,355,1795.6558,345,1812.6401,194,1812.6401" style="stroke:#181818;stroke-width:0.5;"/><text fill="#000000" font-family="sans-serif" font-size="12" lengthAdjust="spacing" textLength="131" x="204" y="1799.8101">Non-blocking sending</text><polygon fill="#F1F1F1" points="246.5,1661.3003,292.5,1661.3003,304.5,1673.3003,292.5,1685.3003,246.5,1685.3003,234.5,1673.3003,246.5,1661.3003" style="stroke:#181818;stroke-width:0.5;"/><text fill="#000000" font-family="sans-serif" font-size="11" lengthAdjust="spacing" textLength="21" x="273.5" y="1695.5107">yes</text><text fill="#000000" font-family="sans-serif" font-size="11" lengthAdjust="spacing" textLength="46" x="246.5" y="1677.1084">publish?</text><text fill="#000000" font-family="sans-serif" font-size="11" lengthAdjust="spacing" textLength="14" x="304.5" y="1670.7061">no</text><polygon fill="#F1F1F1" points="269.5,1832.6401,281.5,1844.6401,269.5,1856.6401,257.5,1844.6401,269.5,1832.6401" style="stroke:#181818;stroke-width:0.5;"/><polygon fill="#F1F1F1" points="254.5,319.8438,284.5,319.8438,296.5,331.8438,284.5,343.8438,254.5,343.8438,242.5,331.8438,254.5,319.8438" style="stroke:#181818;stroke-width:0.5;"/><text fill="#000000" font-family="sans-serif" font-size="11" lengthAdjust="spacing" textLength="28" x="273.5" y="354.0542">false</text><text fill="#000000" font-family="sans-serif" font-size="11" lengthAdjust="spacing" textLength="30" x="254.5" y="335.6519">stop?</text><text fill="#000000" font-family="sans-serif" font-size="11" lengthAdjust="spacing" textLength="23" x="219.5" y="329.2495">true</text><rect fill="#ADD8E6" height="33.9688" rx="12.5" ry="12.5" style="stroke:#181818;stroke-width:0.5;" width="209" x="165" y="1898.6401"/><text fill="#000000" font-family="sans-serif" font-size="12" lengthAdjust="spacing" textLength="189" x="175" y="1919.7788">Releasing the library resources</text><rect fill="#F1F1F1" height="33.9688" rx="12.5" ry="12.5" style="stroke:#181818;stroke-width:0.5;" width="172" x="183.5" y="1952.6089"/><text fill="#000000" font-family="sans-serif" font-size="12" lengthAdjust="spacing" textLength="152" x="193.5" y="1973.7476">Closing TCP/IP connection</text><ellipse cx="269.5" cy="2017.5776" fill="none" rx="11" ry="11" style="stroke:#222222;stroke-width:1.0;"/><ellipse cx="269.5" cy="2017.5776" fill="#222222" rx="6" ry="6" style="stroke:#222222;stroke-width:1.0;"/><line style="stroke:#181818;stroke-width:1.0;" x1="269.5" x2="269.5" y1="30" y2="50"/><polygon fill="#181818" points="265.5,40,269.5,50,273.5,40,269.5,44" style="stroke:#181818;stroke-width:1.0;"/><line style="stroke:#181818;stroke-width:1.0;" x1="269.5" x2="269.5" y1="83.9688" y2="103.9688"/><polygon fill="#181818" points="265.5,93.9688,269.5,103.9688,273.5,93.9688,269.5,97.9688" style="stroke:#181818;stroke-width:1.0;"/><line style="stroke:#181818;stroke-width:1.0;" x1="269.5" x2="269.5" y1="137.9375" y2="157.9375"/><polygon fill="#181818" points="265.5,147.9375,269.5,157.9375,273.5,147.9375,269.5,151.9375" style="stroke:#181818;stroke-width:1.0;"/><line style="stroke:#181818;stroke-width:1.0;" x1="269.5" x2="269.5" y1="191.9063" y2="211.9063"/><polygon fill="#181818" points="265.5,201.9063,269.5,211.9063,273.5,201.9063,269.5,205.9063" style="stroke:#181818;stroke-width:1.0;"/><line style="stroke:#181818;stroke-width:1.0;" x1="269.5" x2="269.5" y1="245.875" y2="265.875"/><polygon fill="#181818" points="265.5,255.875,269.5,265.875,273.5,255.875,269.5,259.875" style="stroke:#181818;stroke-width:1.0;"/><line style="stroke:#181818;stroke-width:1.0;" x1="439.5" x2="439.5" y1="633.894" y2="658.2964"/><polygon fill="#181818" points="435.5,648.2964,439.5,658.2964,443.5,648.2964,439.5,652.2964" style="stroke:#181818;stroke-width:1.0;"/><line style="stroke:#181818;stroke-width:1.0;" x1="498.5" x2="535" y1="621.894" y2="621.894"/><polygon fill="#181818" points="531,665.2808,535,675.2808,539,665.2808,535,669.2808" style="stroke:#181818;stroke-width:1.0;"/><line style="stroke:#181818;stroke-width:1.0;" x1="535" x2="535" y1="621.894" y2="724.2651"/><line style="stroke:#181818;stroke-width:1.0;" x1="535" x2="451.5" y1="724.2651" y2="724.2651"/><polygon fill="#181818" points="461.5,720.2651,451.5,724.2651,461.5,728.2651,457.5,724.2651" style="stroke:#181818;stroke-width:1.0;"/><line style="stroke:#181818;stroke-width:1.0;" x1="439.5" x2="439.5" y1="692.2651" y2="712.2651"/><polygon fill="#181818" points="435.5,702.2651,439.5,712.2651,443.5,702.2651,439.5,706.2651" style="stroke:#181818;stroke-width:1.0;"/><line style="stroke:#181818;stroke-width:1.0;" x1="109.5" x2="99.5" y1="587.894" y2="587.894"/><line style="stroke:#181818;stroke-width:1.0;" x1="99.5" x2="99.5" y1="587.894" y2="609.894"/><polygon fill="#181818" points="95.5,599.894,99.5,609.894,103.5,599.894,99.5,603.894" style="stroke:#181818;stroke-width:1.0;"/><line style="stroke:#181818;stroke-width:1.0;" x1="429.5" x2="439.5" y1="587.894" y2="587.894"/><line style="stroke:#181818;stroke-width:1.0;" x1="439.5" x2="439.5" y1="587.894" y2="609.894"/><polygon fill="#181818" points="435.5,599.894,439.5,609.894,443.5,599.894,439.5,603.894" style="stroke:#181818;stroke-width:1.0;"/><line style="stroke:#181818;stroke-width:1.0;" x1="99.5" x2="99.5" y1="643.8628" y2="754.2651"/><line style="stroke:#181818;stroke-width:1.0;" x1="99.5" x2="257.5" y1="754.2651" y2="754.2651"/><polygon fill="#181818" points="247.5,750.2651,257.5,754.2651,247.5,758.2651,251.5,754.2651" style="stroke:#181818;stroke-width:1.0;"/><line style="stroke:#181818;stroke-width:1.0;" x1="439.5" x2="439.5" y1="736.2651" y2="754.2651"/><line style="stroke:#181818;stroke-width:1.0;" x1="439.5" x2="281.5" y1="754.2651" y2="754.2651"/><polygon fill="#181818" points="291.5,750.2651,281.5,754.2651,291.5,758.2651,287.5,754.2651" style="stroke:#181818;stroke-width:1.0;"/><line style="stroke:#181818;stroke-width:1.0;" x1="269.5" x2="269.5" y1="555.894" y2="575.894"/><polygon fill="#181818" points="265.5,565.894,269.5,575.894,273.5,565.894,269.5,569.894" style="stroke:#181818;stroke-width:1.0;"/><line style="stroke:#181818;stroke-width:1.0;" x1="269.5" x2="269.5" y1="501.9253" y2="521.9253"/><polygon fill="#181818" points="265.5,511.9253,269.5,521.9253,273.5,511.9253,269.5,515.9253" style="stroke:#181818;stroke-width:1.0;"/><line style="stroke:#181818;stroke-width:1.0;" x1="365" x2="553.5" y1="798.2651" y2="798.2651"/><polygon fill="#181818" points="549.5,648.7964,553.5,638.7964,557.5,648.7964,553.5,644.7964" style="stroke:#181818;stroke-width:1.0;"/><line style="stroke:#181818;stroke-width:1.0;" x1="553.5" x2="553.5" y1="489.9253" y2="798.2651"/><line style="stroke:#181818;stroke-width:1.0;" x1="553.5" x2="281.5" y1="489.9253" y2="489.9253"/><polygon fill="#181818" points="291.5,485.9253,281.5,489.9253,291.5,493.9253,287.5,489.9253" style="stroke:#181818;stroke-width:1.0;"/><line style="stroke:#181818;stroke-width:1.0;" x1="269.5" x2="269.5" y1="766.2651" y2="786.2651"/><polygon fill="#181818" points="265.5,776.2651,269.5,786.2651,273.5,776.2651,269.5,780.2651" style="stroke:#181818;stroke-width:1.0;"/><line style="stroke:#181818;stroke-width:1.0;" x1="269.5" x2="269.5" y1="457.9253" y2="477.9253"/><polygon fill="#181818" points="265.5,467.9253,269.5,477.9253,273.5,467.9253,269.5,471.9253" style="stroke:#181818;stroke-width:1.0;"/><line style="stroke:#181818;stroke-width:1.0;" x1="269.5" x2="269.5" y1="399.5542" y2="423.9565"/><polygon fill="#181818" points="265.5,413.9565,269.5,423.9565,273.5,413.9565,269.5,417.9565" style="stroke:#181818;stroke-width:1.0;"/><line style="stroke:#181818;stroke-width:1.0;" x1="319" x2="572" y1="387.5542" y2="387.5542"/><polygon fill="#181818" points="568,594.312,572,604.312,576,594.312,572,598.312" style="stroke:#181818;stroke-width:1.0;"/><line style="stroke:#181818;stroke-width:1.0;" x1="572" x2="572" y1="387.5542" y2="842.2651"/><line style="stroke:#181818;stroke-width:1.0;" x1="572" x2="281.5" y1="842.2651" y2="842.2651"/><polygon fill="#181818" points="291.5,838.2651,281.5,842.2651,291.5,846.2651,287.5,842.2651" style="stroke:#181818;stroke-width:1.0;"/><line style="stroke:#181818;stroke-width:1.0;" x1="269.5" x2="269.5" y1="810.2651" y2="830.2651"/><polygon fill="#181818" points="265.5,820.2651,269.5,830.2651,273.5,820.2651,269.5,824.2651" style="stroke:#181818;stroke-width:1.0;"/><line style="stroke:#181818;stroke-width:1.0;" x1="269.5" x2="269.5" y1="854.2651" y2="874.2651"/><polygon fill="#181818" points="265.5,864.2651,269.5,874.2651,273.5,864.2651,269.5,868.2651" style="stroke:#181818;stroke-width:1.0;"/><line style="stroke:#181818;stroke-width:1.0;" x1="440" x2="440" y1="1205.5894" y2="1229.9917"/><polygon fill="#181818" points="436,1219.9917,440,1229.9917,444,1219.9917,440,1223.9917" style="stroke:#181818;stroke-width:1.0;"/><line style="stroke:#181818;stroke-width:1.0;" x1="499" x2="535.5" y1="1193.5894" y2="1193.5894"/><polygon fill="#181818" points="531.5,1236.9761,535.5,1246.9761,539.5,1236.9761,535.5,1240.9761" style="stroke:#181818;stroke-width:1.0;"/><line style="stroke:#181818;stroke-width:1.0;" x1="535.5" x2="535.5" y1="1193.5894" y2="1295.9604"/><line style="stroke:#181818;stroke-width:1.0;" x1="535.5" x2="452" y1="1295.9604" y2="1295.9604"/><polygon fill="#181818" points="462,1291.9604,452,1295.9604,462,1299.9604,458,1295.9604" style="stroke:#181818;stroke-width:1.0;"/><line style="stroke:#181818;stroke-width:1.0;" x1="440" x2="440" y1="1263.9604" y2="1283.9604"/><polygon fill="#181818" points="436,1273.9604,440,1283.9604,444,1273.9604,440,1277.9604" style="stroke:#181818;stroke-width:1.0;"/><line style="stroke:#181818;stroke-width:1.0;" x1="109" x2="99" y1="1159.5894" y2="1159.5894"/><line style="stroke:#181818;stroke-width:1.0;" x1="99" x2="99" y1="1159.5894" y2="1181.5894"/><polygon fill="#181818" points="95,1171.5894,99,1181.5894,103,1171.5894,99,1175.5894" style="stroke:#181818;stroke-width:1.0;"/><line style="stroke:#181818;stroke-width:1.0;" x1="430" x2="440" y1="1159.5894" y2="1159.5894"/><line style="stroke:#181818;stroke-width:1.0;" x1="440" x2="440" y1="1159.5894" y2="1181.5894"/><polygon fill="#181818" points="436,1171.5894,440,1181.5894,444,1171.5894,440,1175.5894" style="stroke:#181818;stroke-width:1.0;"/><line style="stroke:#181818;stroke-width:1.0;" x1="99" x2="99" y1="1215.5581" y2="1325.9604"/><line style="stroke:#181818;stroke-width:1.0;" x1="99" x2="257.5" y1="1325.9604" y2="1325.9604"/><polygon fill="#181818" points="247.5,1321.9604,257.5,1325.9604,247.5,1329.9604,251.5,1325.9604" style="stroke:#181818;stroke-width:1.0;"/><line style="stroke:#181818;stroke-width:1.0;" x1="440" x2="440" y1="1307.9604" y2="1325.9604"/><line style="stroke:#181818;stroke-width:1.0;" x1="440" x2="281.5" y1="1325.9604" y2="1325.9604"/><polygon fill="#181818" points="291.5,1321.9604,281.5,1325.9604,291.5,1329.9604,287.5,1325.9604" style="stroke:#181818;stroke-width:1.0;"/><line style="stroke:#181818;stroke-width:1.0;" x1="269.5" x2="269.5" y1="1127.5894" y2="1147.5894"/><polygon fill="#181818" points="265.5,1137.5894,269.5,1147.5894,273.5,1137.5894,269.5,1141.5894" style="stroke:#181818;stroke-width:1.0;"/><line style="stroke:#181818;stroke-width:1.0;" x1="269.5" x2="269.5" y1="1054.605" y2="1093.6206"/><polygon fill="#181818" points="265.5,1083.6206,269.5,1093.6206,273.5,1083.6206,269.5,1087.6206" style="stroke:#181818;stroke-width:1.0;"/><line style="stroke:#181818;stroke-width:1.0;" x1="365" x2="554" y1="1369.9604" y2="1369.9604"/><polygon fill="#181818" points="550,1220.4917,554,1210.4917,558,1220.4917,554,1216.4917" style="stroke:#181818;stroke-width:1.0;"/><line style="stroke:#181818;stroke-width:1.0;" x1="554" x2="554" y1="1042.605" y2="1369.9604"/><line style="stroke:#181818;stroke-width:1.0;" x1="554" x2="281.5" y1="1042.605" y2="1042.605"/><polygon fill="#181818" points="291.5,1038.605,281.5,1042.605,291.5,1046.605,287.5,1042.605" style="stroke:#181818;stroke-width:1.0;"/><line style="stroke:#181818;stroke-width:1.0;" x1="269.5" x2="269.5" y1="1337.9604" y2="1357.9604"/><polygon fill="#181818" points="265.5,1347.9604,269.5,1357.9604,273.5,1347.9604,269.5,1351.9604" style="stroke:#181818;stroke-width:1.0;"/><line style="stroke:#181818;stroke-width:1.0;" x1="269.5" x2="269.5" y1="1010.605" y2="1030.605"/><polygon fill="#181818" points="265.5,1020.605,269.5,1030.605,273.5,1020.605,269.5,1024.605" style="stroke:#181818;stroke-width:1.0;"/><line style="stroke:#181818;stroke-width:1.0;" x1="269.5" x2="269.5" y1="952.2339" y2="976.6362"/><polygon fill="#181818" points="265.5,966.6362,269.5,976.6362,273.5,966.6362,269.5,970.6362" style="stroke:#181818;stroke-width:1.0;"/><line style="stroke:#181818;stroke-width:1.0;" x1="324.5" x2="572.5" y1="940.2339" y2="940.2339"/><polygon fill="#181818" points="568.5,1166.0073,572.5,1176.0073,576.5,1166.0073,572.5,1170.0073" style="stroke:#181818;stroke-width:1.0;"/><line style="stroke:#181818;stroke-width:1.0;" x1="572.5" x2="572.5" y1="940.2339" y2="1413.9604"/><line style="stroke:#181818;stroke-width:1.0;" x1="572.5" x2="281.5" y1="1413.9604" y2="1413.9604"/><polygon fill="#181818" points="291.5,1409.9604,281.5,1413.9604,291.5,1417.9604,287.5,1413.9604" style="stroke:#181818;stroke-width:1.0;"/><line style="stroke:#181818;stroke-width:1.0;" x1="269.5" x2="269.5" y1="1381.9604" y2="1401.9604"/><polygon fill="#181818" points="265.5,1391.9604,269.5,1401.9604,273.5,1391.9604,269.5,1395.9604" style="stroke:#181818;stroke-width:1.0;"/><line style="stroke:#181818;stroke-width:1.0;" x1="269.5" x2="269.5" y1="908.2339" y2="928.2339"/><polygon fill="#181818" points="265.5,918.2339,269.5,928.2339,273.5,918.2339,269.5,922.2339" style="stroke:#181818;stroke-width:1.0;"/><line style="stroke:#181818;stroke-width:1.0;" x1="269.5" x2="269.5" y1="1528.3315" y2="1563.3315"/><polygon fill="#181818" points="265.5,1553.3315,269.5,1563.3315,273.5,1553.3315,269.5,1557.3315" style="stroke:#181818;stroke-width:1.0;"/><line style="stroke:#181818;stroke-width:1.0;" x1="269.5" x2="269.5" y1="1469.9604" y2="1494.3628"/><polygon fill="#181818" points="265.5,1484.3628,269.5,1494.3628,273.5,1484.3628,269.5,1488.3628" style="stroke:#181818;stroke-width:1.0;"/><line style="stroke:#181818;stroke-width:1.0;" x1="311.5" x2="377" y1="1457.9604" y2="1457.9604"/><polygon fill="#181818" points="373,1535.8315,377,1545.8315,381,1535.8315,377,1539.8315" style="stroke:#181818;stroke-width:1.0;"/><line style="stroke:#181818;stroke-width:1.0;" x1="377" x2="377" y1="1457.9604" y2="1629.3003"/><line style="stroke:#181818;stroke-width:1.0;" x1="377" x2="281.5" y1="1629.3003" y2="1629.3003"/><polygon fill="#181818" points="291.5,1625.3003,281.5,1629.3003,291.5,1633.3003,287.5,1629.3003" style="stroke:#181818;stroke-width:1.0;"/><line style="stroke:#181818;stroke-width:1.0;" x1="269.5" x2="269.5" y1="1597.3003" y2="1617.3003"/><polygon fill="#181818" points="265.5,1607.3003,269.5,1617.3003,273.5,1607.3003,269.5,1611.3003" style="stroke:#181818;stroke-width:1.0;"/><line style="stroke:#181818;stroke-width:1.0;" x1="269.5" x2="269.5" y1="1425.9604" y2="1445.9604"/><polygon fill="#181818" points="265.5,1435.9604,269.5,1445.9604,273.5,1435.9604,269.5,1439.9604" style="stroke:#181818;stroke-width:1.0;"/><line style="stroke:#181818;stroke-width:1.0;" x1="269.5" x2="269.5" y1="1743.6714" y2="1778.6714"/><polygon fill="#181818" points="265.5,1768.6714,269.5,1778.6714,273.5,1768.6714,269.5,1772.6714" style="stroke:#181818;stroke-width:1.0;"/><line style="stroke:#181818;stroke-width:1.0;" x1="269.5" x2="269.5" y1="1685.3003" y2="1709.7026"/><polygon fill="#181818" points="265.5,1699.7026,269.5,1709.7026,273.5,1699.7026,269.5,1703.7026" style="stroke:#181818;stroke-width:1.0;"/><line style="stroke:#181818;stroke-width:1.0;" x1="304.5" x2="368.5" y1="1673.3003" y2="1673.3003"/><polygon fill="#181818" points="364.5,1751.1714,368.5,1761.1714,372.5,1751.1714,368.5,1755.1714" style="stroke:#181818;stroke-width:1.0;"/><line style="stroke:#181818;stroke-width:1.0;" x1="368.5" x2="368.5" y1="1673.3003" y2="1844.6401"/><line style="stroke:#181818;stroke-width:1.0;" x1="368.5" x2="281.5" y1="1844.6401" y2="1844.6401"/><polygon fill="#181818" points="291.5,1840.6401,281.5,1844.6401,291.5,1848.6401,287.5,1844.6401" style="stroke:#181818;stroke-width:1.0;"/><line style="stroke:#181818;stroke-width:1.0;" x1="269.5" x2="269.5" y1="1812.6401" y2="1832.6401"/><polygon fill="#181818" points="265.5,1822.6401,269.5,1832.6401,273.5,1822.6401,269.5,1826.6401" style="stroke:#181818;stroke-width:1.0;"/><line style="stroke:#181818;stroke-width:1.0;" x1="269.5" x2="269.5" y1="1641.3003" y2="1661.3003"/><polygon fill="#181818" points="265.5,1651.3003,269.5,1661.3003,273.5,1651.3003,269.5,1655.3003" style="stroke:#181818;stroke-width:1.0;"/><line style="stroke:#181818;stroke-width:1.0;" x1="269.5" x2="269.5" y1="343.8438" y2="375.5542"/><polygon fill="#181818" points="265.5,365.5542,269.5,375.5542,273.5,365.5542,269.5,369.5542" style="stroke:#181818;stroke-width:1.0;"/><line style="stroke:#181818;stroke-width:1.0;" x1="269.5" x2="269.5" y1="1856.6401" y2="1866.6401"/><line style="stroke:#181818;stroke-width:1.0;" x1="269.5" x2="590.5" y1="1866.6401" y2="1866.6401"/><polygon fill="#181818" points="586.5,1078.605,590.5,1068.605,594.5,1078.605,590.5,1074.605" style="stroke:#181818;stroke-width:1.0;"/><line style="stroke:#181818;stroke-width:1.0;" x1="590.5" x2="590.5" y1="331.8438" y2="1866.6401"/><line style="stroke:#181818;stroke-width:1.0;" x1="590.5" x2="296.5" y1="331.8438" y2="331.8438"/><polygon fill="#181818" points="306.5,327.8438,296.5,331.8438,306.5,335.8438,302.5,331.8438" style="stroke:#181818;stroke-width:1.0;"/><line style="stroke:#181818;stroke-width:1.0;" x1="242.5" x2="24" y1="331.8438" y2="331.8438"/><polygon fill="#181818" points="20,1064.605,24,1074.605,28,1064.605,24,1068.605" style="stroke:#181818;stroke-width:1.0;"/><line style="stroke:#181818;stroke-width:1.0;" x1="24" x2="24" y1="331.8438" y2="1878.6401"/><line style="stroke:#181818;stroke-width:1.0;" x1="24" x2="269.5" y1="1878.6401" y2="1878.6401"/><line style="stroke:#181818;stroke-width:1.0;" x1="269.5" x2="269.5" y1="1878.6401" y2="1898.6401"/><polygon fill="#181818" points="265.5,1888.6401,269.5,1898.6401,273.5,1888.6401,269.5,1892.6401" style="stroke:#181818;stroke-width:1.0;"/><line style="stroke:#181818;stroke-width:1.0;" x1="269.5" x2="269.5" y1="299.8438" y2="319.8438"/><polygon fill="#181818" points="265.5,309.8438,269.5,319.8438,273.5,309.8438,269.5,313.8438" style="stroke:#181818;stroke-width:1.0;"/><line style="stroke:#181818;stroke-width:1.0;" x1="269.5" x2="269.5" y1="1932.6089" y2="1952.6089"/><polygon fill="#181818" points="265.5,1942.6089,269.5,1952.6089,273.5,1942.6089,269.5,1946.6089" style="stroke:#181818;stroke-width:1.0;"/><line style="stroke:#181818;stroke-width:1.0;" x1="269.5" x2="269.5" y1="1986.5776" y2="2006.5776"/><polygon fill="#181818" points="265.5,1996.5776,269.5,2006.5776,273.5,1996.5776,269.5,2000.5776" style="stroke:#181818;stroke-width:1.0;"/><!--SRC=[xPHDRzim38Rl_XKSTd423BwdGOl6DJO3M-RMoQw5hD29K4Ko96f3zkidoMcSZsNeORljOiWczV8XQRplEiFMMmREuZSq93YJPGkwRHDBp50oAPKWmQJuATGQ5dcLbTLDaanohLgnTYPyfGq2YIqQ7tWlnNf3ZNHuUZFaID4OPdQdMUT2GzAay0YD57Opb0QkbK9EGYkVyMCZ9AQMT7St0c4XRPcqE4e0H9j68Z1CM5pviDTMaExGXZ30f4QYe8lRZdQmOiHkOi1WXupY4U28ipAQexMlcCE5M2pB3Cyo68_dnNWC_lNBusBnN2_plAZh661gvIFxG5NC7yhvn-U7-yLzbeqkyI9YOOmsq1qAlzP3toIaIW-fdY00WTBKD_HxHQyvr-f38pL_2OrOLAkWEvr-TTGvkhqzf5xM2BbjSdxknmNz9WvJA1wlzNeN18_5Uwda7CqWH_4zmC5qMgeUBXawxUD_tEpfclQW_sgn5wt-N-f-NTOrbXlHu2N-oHQmOz44ignUpkhygPmLlcp7-0jIFwGtz7aDedFHIDwCK2rddylwqzy0yCyuI4Z9E6zEn-RtX1APFRC-FtwhdV7_HpHQgUqr_mlEzmi0]--></g></svg>