<?xml version="1.0" encoding="us-ascii" standalone="no"?><svg xmlns="http://www.w3.org/2000/svg" xmlns:xlink="http://www.w3.org/1999/xlink" contentStyleType="text/css" height="269px" preserveAspectRatio="none" style="width:544px;height:269px;background:#FFFFFF;" version="1.1" viewBox="0 0 544 269" width="544px" zoomAndPan="magnify"><defs/><g><ellipse cx="276.5" cy="20" fill="#222222" rx="10" ry="10" style="stroke:#222222;stroke-width:1.0;"/><polygon fill="#F1F1F1" points="32,50,95,50,107,62,95,74,32,74,20,62,32,50" style="stroke:#181818;stroke-width:0.5;"/><text fill="#000000" font-family="sans-serif" font-size="11" lengthAdjust="spacing" textLength="21" x="67.5" y="84.2104">yes</text><text fill="#000000" font-family="sans-serif" font-size="11" lengthAdjust="spacing" textLength="63" x="32" y="65.8081">condition A</text><rect fill="#F1F1F1" height="33.9688" rx="12.5" ry="12.5" style="stroke:#181818;stroke-width:0.5;" width="57" x="35" y="105.7104"/><text fill="#000000" font-family="sans-serif" font-size="12" lengthAdjust="spacing" textLength="37" x="45" y="126.8491">Text 1</text><polygon fill="#F1F1F1" points="139,50,202,50,214,62,202,74,139,74,127,62,139,50" style="stroke:#181818;stroke-width:0.5;"/><text fill="#000000" font-family="sans-serif" font-size="11" lengthAdjust="spacing" textLength="21" x="174.5" y="84.2104">yes</text><text fill="#000000" font-family="sans-serif" font-size="11" lengthAdjust="spacing" textLength="63" x="139" y="65.8081">condition B</text><rect fill="#F1F1F1" height="33.9688" rx="12.5" ry="12.5" style="stroke:#181818;stroke-width:0.5;" width="58" x="141.5" y="105.7104"/><text fill="#000000" font-family="sans-serif" font-size="12" lengthAdjust="spacing" textLength="38" x="151.5" y="126.8491">Text 2</text><ellipse cx="170.5" cy="185.6792" fill="none" rx="11" ry="11" style="stroke:#222222;stroke-width:1.0;"/><ellipse cx="170.5" cy="185.6792" fill="#222222" rx="6" ry="6" style="stroke:#222222;stroke-width:1.0;"/><polygon fill="#F1F1F1" points="250,50,313,50,325,62,313,74,250,74,238,62,250,50" style="stroke:#181818;stroke-width:0.5;"/><text fill="#000000" font-family="sans-serif" font-size="11" lengthAdjust="spacing" textLength="21" x="285.5" y="84.2104">yes</text><text fill="#000000" font-family="sans-serif" font-size="11" lengthAdjust="spacing" textLength="63" x="250" y="65.8081">condition C</text><text fill="#000000" font-family="sans-serif" font-size="11" lengthAdjust="spacing" textLength="14" x="224" y="59.4058">no</text><rect fill="#F1F1F1" height="33.9688" rx="12.5" ry="12.5" style="stroke:#181818;stroke-width:0.5;" width="58" x="252.5" y="105.7104"/><text fill="#000000" font-family="sans-serif" font-size="12" lengthAdjust="spacing" textLength="38" x="262.5" y="126.8491">Text 3</text><polygon fill="#F1F1F1" points="361,50,425,50,437,62,425,74,361,74,349,62,361,50" style="stroke:#181818;stroke-width:0.5;"/><text fill="#000000" font-family="sans-serif" font-size="11" lengthAdjust="spacing" textLength="21" x="397" y="84.2104">yes</text><text fill="#000000" font-family="sans-serif" font-size="11" lengthAdjust="spacing" textLength="64" x="361" y="65.8081">condition D</text><text fill="#000000" font-family="sans-serif" font-size="11" lengthAdjust="spacing" textLength="14" x="335" y="59.4058">no</text><text fill="#000000" font-family="sans-serif" font-size="11" lengthAdjust="spacing" textLength="42" x="437" y="59.4058">nothing</text><rect fill="#F1F1F1" height="33.9688" rx="12.5" ry="12.5" style="stroke:#181818;stroke-width:0.5;" width="58" x="364" y="105.7104"/><text fill="#000000" font-family="sans-serif" font-size="12" lengthAdjust="spacing" textLength="38" x="374" y="126.8491">Text 4</text><rect fill="#F1F1F1" height="33.9688" rx="12.5" ry="12.5" style="stroke:#181818;stroke-width:0.5;" width="76" x="457" y="130.8081"/><text fill="#000000" font-family="sans-serif" font-size="12" lengthAdjust="spacing" textLength="56" x="467" y="151.9468">Text else</text><ellipse cx="276.5" cy="247.6792" fill="none" rx="11" ry="11" style="stroke:#222222;stroke-width:1.0;"/><ellipse cx="276.5" cy="247.6792" fill="#222222" rx="6" ry="6" style="stroke:#222222;stroke-width:1.0;"/><line style="stroke:#181818;stroke-width:1.0;" x1="170.5" x2="170.5" y1="139.6792" y2="174.6792"/><polygon fill="#181818" points="166.5,164.6792,170.5,174.6792,174.5,164.6792,170.5,168.6792" style="stroke:#181818;stroke-width:1.0;"/><line style="stroke:#181818;stroke-width:1.0;" x1="63.5" x2="63.5" y1="74" y2="105.7104"/><polygon fill="#181818" points="59.5,95.7104,63.5,105.7104,67.5,95.7104,63.5,99.7104" style="stroke:#181818;stroke-width:1.0;"/><line style="stroke:#181818;stroke-width:1.0;" x1="63.5" x2="63.5" y1="139.6792" y2="216.6792"/><polygon fill="#181818" points="59.5,206.6792,63.5,216.6792,67.5,206.6792,63.5,210.6792" style="stroke:#181818;stroke-width:1.0;"/><line style="stroke:#181818;stroke-width:1.0;" x1="170.5" x2="170.5" y1="74" y2="105.7104"/><polygon fill="#181818" points="166.5,95.7104,170.5,105.7104,174.5,95.7104,170.5,99.7104" style="stroke:#181818;stroke-width:1.0;"/><line style="stroke:#181818;stroke-width:1.0;" x1="281.5" x2="281.5" y1="74" y2="105.7104"/><polygon fill="#181818" points="277.5,95.7104,281.5,105.7104,285.5,95.7104,281.5,99.7104" style="stroke:#181818;stroke-width:1.0;"/><line style="stroke:#181818;stroke-width:1.0;" x1="281.5" x2="281.5" y1="139.6792" y2="216.6792"/><polygon fill="#181818" points="277.5,206.6792,281.5,216.6792,285.5,206.6792,281.5,210.6792" style="stroke:#181818;stroke-width:1.0;"/><line style="stroke:#181818;stroke-width:1.0;" x1="393" x2="393" y1="74" y2="105.7104"/><polygon fill="#181818" points="389,95.7104,393,105.7104,397,95.7104,393,99.7104" style="stroke:#181818;stroke-width:1.0;"/><line style="stroke:#181818;stroke-width:1.0;" x1="393" x2="393" y1="139.6792" y2="216.6792"/><polygon fill="#181818" points="389,206.6792,393,216.6792,397,206.6792,393,210.6792" style="stroke:#181818;stroke-width:1.0;"/><line style="stroke:#181818;stroke-width:1.0;" x1="107" x2="127" y1="62" y2="62"/><polygon fill="#181818" points="117,58,127,62,117,66,121,62" style="stroke:#181818;stroke-width:1.0;"/><line style="stroke:#181818;stroke-width:1.0;" x1="214" x2="238" y1="62" y2="62"/><polygon fill="#181818" points="228,58,238,62,228,66,232,62" style="stroke:#181818;stroke-width:1.0;"/><line style="stroke:#181818;stroke-width:1.0;" x1="325" x2="349" y1="62" y2="62"/><polygon fill="#181818" points="339,58,349,62,339,66,343,62" style="stroke:#181818;stroke-width:1.0;"/><line style="stroke:#181818;stroke-width:1.0;" x1="276.5" x2="276.5" y1="30" y2="35"/><line style="stroke:#181818;stroke-width:1.0;" x1="276.5" x2="63.5" y1="35" y2="35"/><line style="stroke:#181818;stroke-width:1.0;" x1="63.5" x2="63.5" y1="35" y2="50"/><polygon fill="#181818" points="59.5,40,63.5,50,67.5,40,63.5,44" style="stroke:#181818;stroke-width:1.0;"/><line style="stroke:#181818;stroke-width:1.0;" x1="437" x2="495" y1="62" y2="62"/><line style="stroke:#181818;stroke-width:1.0;" x1="495" x2="495" y1="62" y2="130.8081"/><polygon fill="#181818" points="491,120.8081,495,130.8081,499,120.8081,495,124.8081" style="stroke:#181818;stroke-width:1.0;"/><line style="stroke:#181818;stroke-width:1.0;" x1="495" x2="495" y1="164.7769" y2="216.6792"/><polygon fill="#181818" points="491,206.6792,495,216.6792,499,206.6792,495,210.6792" style="stroke:#181818;stroke-width:1.0;"/><line style="stroke:#181818;stroke-width:1.0;" x1="63.5" x2="495" y1="216.6792" y2="216.6792"/><line style="stroke:#181818;stroke-width:1.0;" x1="276.5" x2="276.5" y1="216.6792" y2="236.6792"/><polygon fill="#181818" points="272.5,226.6792,276.5,236.6792,280.5,226.6792,276.5,230.6792" style="stroke:#181818;stroke-width:1.0;"/><!--SRC=[Aov9B2hXoanJq4ZEpql9BCdCprDmr5GeoKZDKz2eJ2tMv59Gi0f9hIXHCBJcIiqfJaLLweHLgP4ra5bSab_0fP6Nhwc0gSqPgpPZQrpgNR2gDu6uI06egIGZCoyT8GCI1ae2jQTnWTm10000]--></g></svg>